<svg width="416" height="323" viewBox="0 0 416 323" fill="none" xmlns="http://www.w3.org/2000/svg">
<path d="M65.5568 64.2668C47.1427 53.0542 15.0951 56.7398 1.37305 59.9842V322.001H414.805V1.00122C406.985 2.49364 389.441 8.39843 381.828 20.0782C374.214 31.758 383.967 43.373 389.795 47.7204C386.771 47.396 377.534 48.3823 364.786 54.923C348.851 63.0989 364.122 88.5998 356.154 84.7065C348.187 80.8132 328.489 80.2292 310.783 94.0503C296.618 105.107 302.52 124.613 307.242 132.983C306.504 132.529 303.346 132.788 296.618 137.46C289.89 142.132 290.126 151.476 291.085 155.564C281.273 150.438 256.869 142.015 237.746 149.335C218.624 156.654 216.352 176.912 217.606 186.126C216.942 185.737 213.534 185.192 205.212 186.126C194.81 187.294 194.81 190.993 189.055 190.798C184.452 190.642 179.169 193.199 177.104 194.497C176.661 192.096 173.695 186.632 165.374 183.985C157.052 181.337 149.66 184.309 147.004 186.126C147.004 184.699 146.473 180.753 144.348 176.393C142.223 172.033 133.429 170.423 129.298 170.164V156.537C129.298 150.62 118.084 143.949 112.477 141.354C113.805 138.628 115.664 130.764 112.477 121.109C109.29 111.453 94.0337 105.406 86.8038 103.589C87.394 95.1534 83.9709 75.4794 65.5568 64.2668Z" fill="#CDFDFD" fill-opacity="0.5" stroke="#8EA3CA"/>
<path d="M11.3314 135.708C16.2005 135.708 26.5585 136.643 29.0373 140.38C31.5161 144.118 32.4309 146.48 32.5784 147.194" stroke="#8EA3CA"/>
<path d="M112.256 141.159L97.6488 138.239" stroke="#8EA3CA"/>
<path d="M169.8 202.089C170.464 199.947 176.44 193.329 180.645 192.355C184.85 191.382 196.359 194.497 199.458 197.417" stroke="#8EA3CA"/>
<path d="M306.577 132.886C309.012 132.107 315.231 130.861 320.631 132.107C326.032 133.353 326.275 133.145 325.722 132.886" stroke="#8EA3CA"/>
<path d="M99.1954 251.922C101.556 247.899 108.889 239.386 119.336 237.517C129.782 235.648 138.739 241.67 141.911 244.914" stroke="#8EA3CA"/>
<path d="M126.863 257.373C128.633 253.22 134.255 244.876 142.577 244.72C150.898 244.564 155.045 249.846 156.077 252.506" stroke="#8EA3CA"/>
<path d="M140.141 231.872C143.904 230.38 153.022 228.29 159.396 231.872C165.771 235.454 168.545 239.464 169.135 241.021" stroke="#8EA3CA"/>
<path d="M206.538 249.781C206.612 244.979 204.148 234.052 193.701 228.758C183.255 223.463 169.429 230.315 163.823 234.403" stroke="#8EA3CA"/>
<path d="M55.1578 188.657C39.0012 168.217 16.1311 163.675 1.81885 164.324V321.223H415.029V114.101C413.259 114.879 407.77 119.279 399.979 130.647C392.189 142.015 398.504 159.522 402.635 166.854C397.028 166.66 375.855 166.854 360.141 178.924C342.407 192.544 338.304 211.692 340.222 221.749C336.828 220.517 327.474 218.791 317.204 221.749C306.935 224.708 299.056 237.907 296.4 244.136C293.302 238.036 283.298 225.643 268.071 224.864C252.844 224.085 241.807 230.12 238.192 233.235C236.274 230.964 228.357 224.085 219.158 224.085C206.764 224.085 202.264 227.46 197.69 231.093C196.067 227.265 188.085 219.452 173.566 214.158C159.047 208.863 143.171 213.379 137.047 216.299C131.441 212.73 116.199 205.709 100.086 206.176C83.974 206.644 69.1749 216.623 63.7894 221.555C64.3796 219.349 64.6676 200.688 55.1578 188.657Z" fill="#E6E7E9" stroke="#8EA3CA"/>
<path d="M198.793 256.01C200.195 253.674 204.681 248.963 211.409 248.808C218.137 248.652 223.36 250.949 225.131 252.117" stroke="#8EA3CA"/>
<path d="M227.346 281.901C229.781 279.37 235.801 274.231 240.405 273.919C245.008 273.608 247.634 274.438 248.372 274.893C250.29 272.816 255.322 268.819 260.102 269.442C264.883 270.065 269.324 272.687 270.947 273.919" stroke="#8EA3CA"/>
<path d="M219.596 318.108C224.096 313.306 235.487 303.664 245.048 303.508C254.609 303.352 259.36 304.871 260.541 305.65C262.016 304.092 265.764 300.744 268.951 299.81C272.138 298.875 274.705 299.42 275.591 299.81" stroke="#8EA3CA"/>
<path d="M272.714 307.207C273.157 304.546 274.75 298.447 277.583 295.332C280.416 292.218 283.043 291.05 284.002 290.855" stroke="#8EA3CA"/>
<path d="M344.427 259.904C345.459 257.178 348.942 251.261 354.608 249.392C360.273 247.523 362.87 246.796 363.46 246.667" stroke="#8EA3CA"/>
<path d="M15.7582 183.401C19.5945 182.687 27.8424 182.194 30.1442 185.932C32.446 189.669 33.7591 191.771 34.128 192.355C36.0462 191.577 40.4136 190.487 42.5383 192.355C44.663 194.224 45.0466 195.989 44.9729 196.638" stroke="#8EA3CA"/>
<path d="M63.5651 221.944L57.368 231.093" stroke="#8EA3CA"/>
<path d="M58.0298 236.544C59.9479 236.349 64.0498 236.933 65.1121 240.827C66.1745 244.72 65.5548 246.731 65.1121 247.25" stroke="#8EA3CA"/>
<path d="M96.3214 256.594C99.1986 246.861 104.073 237.907 112.921 230.315C121.995 222.528 136.492 215.715 144.017 213.768" stroke="#8EA3CA"/>
</svg>
