<svg width="617" height="279" viewBox="0 0 617 279" fill="none" xmlns="http://www.w3.org/2000/svg">
<g opacity="0.7">
<g clip-path="url(#clip0_1_259)">
<path fill-rule="evenodd" clip-rule="evenodd" d="M338.406 184.024L337.711 210.979C343.315 210.775 346.342 210.325 351.005 209.098C351.25 215.029 350.514 220.469 350.882 225.704C355.095 226.441 354.195 224.845 358.981 225.786L360.085 225.336C359.063 220.919 359.185 225.091 359.635 220.469L361.026 216.337L364.094 216.706C364.339 214.947 362.948 215.192 364.421 215.192C366.671 211.634 361.599 214.292 365.771 214.374C368.307 214.456 365.116 215.847 371.988 215.765C375.669 215.765 379.187 215.519 382.909 216.297L383.237 212.165C377.796 212.083 381.601 212.247 383.032 210.938L384.137 196.254L388.227 196.008L388.881 191.713L405.734 191.468L405.693 244.888C395.958 246.647 403.361 243.62 397.635 242.189C397.471 242.27 397.267 242.311 397.226 242.557L394.69 245.502C392.358 248.938 394.485 247.424 390.558 249.674C394.771 250.083 401.807 248.651 404.956 251.269L407.697 250.41L406.143 249.019C403.361 246.361 406.634 250.001 404.425 247.179L411.665 246.688C410.069 242.598 409.947 247.67 410.069 241.616L410.029 213.147L413.873 213.515C415.632 211.184 425.94 209.629 426.145 209.629C426.185 212.37 425.531 228.649 427.126 229.263L431.176 230.736C430.48 224.886 432.157 216.583 430.848 212.165C434.898 211.102 432.239 211.92 434.121 212.165C438.129 212.574 432.607 213.024 436.82 212.574C440.706 212.165 438.497 213.883 439.97 209.67L446.269 209.343C447.537 215.029 446.106 213.106 445.287 213.229C445.287 218.424 445.206 223.741 445.206 228.813C445.206 231.431 445.206 233.762 445.328 236.38L445.41 239.734C445.369 241.984 444.797 239.284 445.287 243.252L449.01 243.579L448.478 221.737L452.977 221.819L469.625 221.532L469.257 170.075C463.939 171.63 467.58 168.726 465.739 173.88C462.222 174.002 456.454 173.225 454.041 174.738C453.468 178.992 453.673 185.087 453.591 189.627C453.509 192.327 453.591 194.659 453.509 197.358C453.305 202.676 453.468 201.98 452.118 203.412C449.501 199.158 452.977 196.254 449.419 190.65L445.819 184.065C445.247 182.633 445.901 183.246 445.124 182.019C445.083 182.019 443.897 178.665 440.502 180.915C437.516 182.919 440.911 183.369 436.248 187.46L435.102 188.4C433.016 186.151 435.021 185.987 432.198 184.964C431.258 184.596 427.167 184.719 425.736 184.596C421.154 190.077 422.136 191.55 421.891 198.217C421.604 205.539 419.15 208.402 411.624 205.498C410.274 202.471 410.478 194.127 410.397 190.527C410.274 185.169 410.683 179.442 409.742 174.248L408.515 171.957C408.433 171.834 408.311 171.589 408.188 171.466C408.106 171.303 407.942 171.098 407.82 170.975L406.634 169.503C406.511 169.339 406.347 169.135 406.265 169.012L405.284 166.926C404.507 168.317 405.366 166.967 404.588 168.398C403.77 170.035 404.384 169.012 403.566 170.035L398.494 170.321C397.308 172.325 397.594 174.411 397.103 173.143C397.062 172.98 396.898 173.593 396.776 173.798C382.337 173.798 384.586 172.652 384.382 181.978C384.177 182.142 383.891 182.265 383.768 182.387L382.828 183.165C381.314 184.964 382.623 185.701 381.069 187.541C379.31 185.905 376.774 186.641 371.702 186.601C371.129 184.31 371.702 184.719 369.534 184.065C369.534 184.105 370.638 185.292 367.816 186.56C363.48 184.883 363.153 179.606 362.376 178.052C357.181 178.583 364.626 178.992 357.508 179.77L356.772 173.593L354.195 173.634C350.636 180.751 359.553 183.41 345.483 182.96V174.534C340.206 174.575 341.638 177.52 341.474 182.837C340.942 183.083 338.529 183.942 338.406 184.024Z" fill="#84ACC4"/>
<path fill-rule="evenodd" clip-rule="evenodd" d="M70.6511 174.779H74.0461C74.2097 175.066 74.3324 175.148 74.3733 175.557C74.5369 176.825 75.2732 175.352 75.1505 182.837C75.1096 185.701 75.1096 188.441 75.1096 191.345L75.1914 204.148C75.1914 204.475 75.0278 205.457 74.946 205.743C74.4551 207.83 75.0687 206.48 74.0461 207.87L70.6511 207.993C68.2787 203.821 69.5876 177.438 69.7103 176.947C70.2421 174.82 69.6694 176.17 70.6511 174.779ZM0.828613 203.453V240.307C6.96416 241.043 6.71873 239.816 12.3225 238.957L15.8402 239.039C15.8402 239.039 19.1534 245.788 16.1675 246.688C16.1675 246.688 15.104 245.747 18.6626 244.725C18.6626 244.725 22.6302 244.725 22.9575 244.766C25.6162 244.847 39.0735 242.107 42.4685 244.111L37.8055 243.743L37.8464 213.27L60.0571 214.579V244.725L64.4337 244.643L64.5974 243.211L64.4337 211.265L69.7512 211.143L69.6694 243.375C71.9191 241.82 69.9966 243.947 71.0601 241.452C71.96 239.325 71.4283 228.854 71.4692 226.277C71.4692 219.937 71.3874 215.438 70.7329 209.629C79.2409 207.052 91.471 211.02 96.0113 207.584L76.5412 207.911L76.3776 174.739L75.764 172.325L68.6468 172.53C68.1969 176.702 68.0742 179.524 68.1151 183.737C68.156 184.555 68.2378 188.073 68.1151 188.646C67.706 190.773 66.6834 190.855 66.6834 190.814C66.6425 190.691 66.3562 190.977 66.1926 191.1C64.8837 186.887 66.1517 185.578 63.6157 181.406C60.8751 176.784 61.0796 180.26 57.6437 177.07L56.1303 174.984C55.3531 181.815 56.5393 172.53 49.1358 183.696C47.7042 194.331 48.6449 190.936 45.0045 196.377C44.9227 196.499 44.6773 197.113 44.6364 196.99C44.5546 196.826 44.391 197.399 44.2683 197.604C39.3189 195.027 39.728 197.031 30.1565 196.908L29.7475 185.414C30.2792 180.997 30.4837 174.657 27.2114 171.712C26.107 170.73 28.7249 171.344 24.7572 170.321C23.4074 169.994 18.7035 170.28 17.1083 170.362C15.6766 174.657 19.7261 173.757 4.0191 174.125C3.65096 179.729 3.65096 185.701 3.61006 191.345C3.61006 196.99 4.83717 201.571 0.828613 203.453Z" fill="#84ACC4"/>
<path fill-rule="evenodd" clip-rule="evenodd" d="M576.465 148.765C576.506 159.073 572.907 172.53 573.766 182.633C573.929 183.86 572.048 202.39 571.802 204.353C571.23 208.893 571.72 223.905 569.675 226.605C573.193 226.318 571.148 225.909 572.579 225.827C576.179 225.623 572.62 227.464 580.392 227.055C582.192 226.932 582.028 226.891 584.196 227.095L585.791 219.242H588.368C588.573 219.856 588.532 220.224 588.614 220.96L588.859 223.087C589.309 220.019 590.331 217.115 590.904 213.802C591.027 213.802 591.231 213.843 591.231 214.006L591.927 214.497C595.567 217.156 604.566 216.42 608.288 215.602L607.961 212.207L592.254 212.37C597.203 212.166 605.18 213.679 608.943 211.266C608.288 209.221 607.634 211.02 606.079 207.38C605.384 205.662 604.893 204.108 604.034 202.103C602.439 203.29 601.662 202.226 602.725 205.376V195.845C602.725 195.804 603.053 193.105 603.093 192.777L600.598 193.759C599.371 194.168 600.721 194.25 599.698 193.882C599.248 192.736 598.553 191.468 599.658 190.814C602.071 189.464 600.107 195.559 601.948 190.609C602.03 190.364 602.398 190.569 602.521 190.487L602.439 187.092L599.044 185.374C599.576 182.142 601.048 182.47 601.253 181.652C601.335 181.324 601.621 181.324 601.825 181.12L600.557 179.197C598.267 174.943 600.23 176.089 600.68 174.657C602.071 170.035 601.294 171.876 598.88 169.217C602.275 163.286 598.758 166.64 599.412 159.645C599.658 157.232 599.698 155.596 599.003 153.592C598.185 151.056 598.758 151.669 596.549 150.483C597.612 146.106 599.821 152.201 598.43 145.615C597.326 140.38 595.894 146.147 596.917 140.993C597.408 138.744 597.94 143.284 597.04 135.103C596.753 132.485 597.081 130.767 596.672 127.741C596.303 123.118 596.181 118.537 595.772 114.61C595.158 109.457 595.281 111.788 594.217 108.802C593.522 106.757 594.054 105.612 595.076 104.221L580.351 104.098C581.66 112.238 576.956 138.989 576.465 148.765Z" fill="#B1AEAE"/>
<path fill-rule="evenodd" clip-rule="evenodd" d="M197.289 187.582C196.471 191.632 196.757 194.127 196.675 198.217C196.593 203.044 195.98 202.267 195.203 206.234L185.304 206.112L185.427 195.027C185.999 190.568 185.508 185.701 185.508 181.079C185.549 174.534 185.672 175.72 181.336 170.403L173.687 170.607C173.524 170.771 173.442 171.098 173.319 171.221C173.237 171.384 173.074 171.671 172.992 171.834L171.847 173.307C170.456 174.411 171.274 174.002 168.656 174.125C165.711 174.289 163.052 173.92 159.616 174.207L159.453 194.74C155.24 195.313 159.535 194.331 157.49 196.377C162.684 195.64 162.112 196.377 163.421 193.922C163.502 193.718 163.584 193.432 163.666 193.227L180.191 191.632L180.273 244.97C179.618 245.665 180.191 246.115 178.269 246.688L179.005 250.369L181.704 250.983C181.5 246.811 182.482 250.206 179.046 247.629L186.367 247.179C184.24 241.452 184.895 248.242 185.099 240.88L184.486 211.552C188.29 211.184 186.981 210.652 187.881 212.411C194.057 211.634 199.988 208.893 200.438 208.811C201.379 218.424 199.743 225.377 202.647 234.212C202.074 233.313 201.788 236.299 202.443 230.408C204.57 232.004 207.31 231.226 210.296 230.817L210.092 216.828C210.051 211.02 209.028 214.906 210.746 212.411C209.805 209.425 217.168 208.893 221.381 208.525C221.258 213.147 221.585 208.443 221.136 210.652L220.481 213.27C218.845 218.914 219.377 217.687 219.499 225.418C219.54 230.408 219.99 238.63 219.131 243.661L222.322 243.293L222.772 241.575L222.935 221.819C224.817 218.137 222.731 221.532 226.494 219.078C229.48 220.469 225.43 217.565 227.476 219.978C227.598 220.142 227.803 220.387 227.926 220.551C228.089 220.755 228.335 221.041 228.457 221.205C228.621 221.41 228.825 221.737 229.03 221.982H244.246C244.164 204.68 242.978 186.969 243.796 169.585C238.806 171.63 242.201 169.994 239.828 173.839L230.789 174.125C227.312 174.657 229.725 174.207 228.58 174.779C226.126 181.079 229.48 197.481 226.126 203.535C226.003 193.595 226.944 194.986 224.408 190.855L219.295 181.488C218.15 180.547 219.458 180.506 213.773 180.301C212.628 186.437 214.1 183.533 211.687 185.374L210.91 185.987C210.01 186.805 210.296 186.764 209.437 187.746L207.76 184.228L199.211 184.269C199.088 184.474 198.966 184.801 198.884 184.924L197.289 187.582Z" fill="#84ACC4"/>
<path fill-rule="evenodd" clip-rule="evenodd" d="M243.796 169.585C242.978 186.969 244.164 204.68 244.246 221.982H229.03C228.825 221.737 228.621 221.41 228.457 221.205C228.335 221.041 228.089 220.755 227.926 220.551C227.803 220.387 227.598 220.142 227.476 219.978C225.43 217.565 229.48 220.469 226.494 219.078C222.731 221.532 224.817 218.137 222.935 221.819C226.576 221.123 229.603 222.269 233.284 222.432C237.047 222.637 240.892 222.759 244.614 222.391C244.001 213.842 243.919 147.006 245.228 142.016C250.382 142.138 248.582 145.983 248.582 151.342L248.214 244.479C253.531 244.766 252.427 244.111 256.313 243.498C258.93 243.089 262.039 243.907 263.103 243.825V213.474L268.993 213.965C270.015 208.811 271.692 216.378 272.388 208.484C272.551 206.439 272.306 202.267 272.306 199.853C272.306 193.881 272.101 187.869 272.224 181.938L272.061 142.22L249.114 142.384L248.255 139.193L244.042 139.602L243.796 169.585Z" fill="#3A7895"/>
<path fill-rule="evenodd" clip-rule="evenodd" d="M487.173 249.019L489.586 249.551C492.367 252.619 488.85 251.474 492.654 252.701C494.535 254.705 492.204 251.31 494.372 254.582C496.417 257.732 495.476 274.257 495.435 278.184H497.44L497.071 161.895L474.82 162.181C473.715 166.64 474.247 221.9 474.452 233.926C474.738 251.842 476.251 244.234 480.219 252.578C488.236 251.065 480.383 250.451 487.173 249.019Z" fill="#287BA3"/>
<path fill-rule="evenodd" clip-rule="evenodd" d="M114.663 183.165L115.277 183.901C115.481 187.95 116.095 190.2 115.195 194.168L116.34 195.927L115.645 201.653C116.749 204.925 115.727 208.279 117.118 211.797L112.782 213.474L112.864 217.115C112.659 222.678 112.209 243.947 113.314 246.729L113.518 214.333C113.764 214.251 114.091 214.21 114.295 214.17L119.204 213.924C121.126 213.965 122.108 213.965 123.458 214.292L124.071 239.039C124.153 243.088 123.212 243.007 123.949 247.956C128.162 246.197 124.398 248.57 126.689 245.379C126.812 245.215 126.894 244.97 127.016 244.806L128.121 243.048C128.162 242.679 128.407 242.639 128.53 242.434L126.198 241.084C124.93 240.307 125.666 241.084 124.317 239.898C126.444 238.834 124.071 239.653 126.28 239.775C130.002 239.98 125.421 242.025 130.248 239.448C132.293 240.757 131.884 237.362 131.925 241.452L132.497 239.53C134.215 239.407 134.665 239.53 136.22 239.284C136.301 239.284 138.019 238.794 138.388 238.712C138.592 235.93 138.183 233.026 139.042 231.595L141.537 231.922C141.373 229.099 141.701 230.531 140.801 228.813C145.587 227.013 142.232 228.159 144.278 225.827C148.204 221.45 150.29 224.927 153.195 230.49C153.481 231.022 153.767 230.572 153.767 231.881L153.726 260.882L157.735 261.495V202.962C155.485 203.698 156.549 203.289 153.645 203.044L152.581 187.787L141.333 187.746C139.083 184.228 142.232 184.269 130.779 182.387C130.739 181.324 130.82 179.483 130.698 178.543L129.184 182.96L119.94 182.837L119.981 174.289C116.668 176.334 117.568 173.88 116.913 177.847C116.259 181.488 118.59 182.878 114.663 183.165Z" fill="#84ACC4"/>
<path fill-rule="evenodd" clip-rule="evenodd" d="M109.141 235.521C112.373 239.734 108.937 240.961 110.9 246.647L111.473 248.16C111.514 248.078 111.555 248.365 111.514 248.569L106.524 248.937C106.155 249.469 105.624 252.946 105.706 255.318C105.746 256.668 105.706 257.323 106.155 258.55L107.26 259.491C100.102 260.145 96.7885 261.249 88.6078 261.372L86.3172 265.667C86.2763 265.544 86.1127 266.076 85.99 266.321H66.3153L65.5791 265.994L64.3929 265.667L60.4252 265.422H57.0302C54.9441 268.162 55.5168 261.74 55.3122 269.716L52.3672 269.307L52.5717 274.175C52.5717 274.339 52.5717 274.584 52.6126 274.748L52.9398 278.183H163.093C163.175 274.952 163.584 272.212 161.743 269.88C155.894 270.739 157.653 270.494 157.776 277.12L154.135 277.938C153.154 276.629 153.645 277.406 152.908 275.729C152.867 275.607 152.54 274.175 152.377 273.684C143.869 275.402 152.417 275.32 144.073 274.87C141.701 274.707 142.478 275.893 140.883 273.643C140.187 278.552 141.537 278.183 135.033 277.611L134.215 270.575L133.888 265.831C130.248 266.076 132.047 266.567 129.961 265.217C132.047 260.309 156.058 264.481 157.04 262.354C157.162 262.067 157.49 262.19 157.694 262.108C153.358 262.067 145.791 262.19 141.455 261.454L141.537 231.921L139.042 231.594C139.369 238.425 140.801 257.732 138.756 262.354C134.788 260.431 136.547 258.223 136.465 248.774L117.445 248.406L119.695 244.765C119.735 244.643 119.899 244.397 119.899 244.315C120.717 241.657 117.977 241.493 116.709 241.002L116.463 246.974L113.314 246.729C112.209 243.947 112.659 222.677 112.864 217.114C114.663 211.429 112.127 214.292 109.878 213.474L110.287 230.572C110.082 233.599 111.023 233.312 109.141 235.521Z" fill="#626D83"/>
<path fill-rule="evenodd" clip-rule="evenodd" d="M469.052 161.977L473.429 161.895L474.82 162.181L497.071 161.895L497.439 278.184H498.953V235.808L498.83 224.355C503.166 225.541 504.843 222.718 507.706 227.054C508.77 228.69 510.16 234.212 510.774 236.258C510.12 238.957 508.892 243.252 513.433 243.661L515.519 234.867H521.164L520.632 234.171L515.273 234.294C516.255 229.713 516.296 232.126 515.232 227.545L521.164 227.668L521.491 211.265L514.864 211.143C517.4 209.588 519.446 211.306 521.736 209.016L514.783 209.302C514.987 209.138 515.273 208.975 515.437 208.893C519.077 207.502 514.251 208.239 520.223 208.239L520.55 205.58C520.55 205.416 520.55 205.171 520.55 205.007C520.509 202.635 519.936 207.093 520.182 201.408L526.113 201.735L526.44 181.12L520.223 181.651C518.914 184.105 519.282 185.578 519.486 188.809C519.323 188.932 519.037 189.055 518.955 189.137L517.4 190.241C517.073 190.527 516.051 191.386 515.969 191.468C513.801 187.296 514.783 181.815 510.938 179.279C505.088 175.516 501.571 179.156 498.871 182.837L498.217 159.85C494.74 157.6 494.331 160.3 491.386 158.132C492.899 152.446 496.049 157.355 493.84 150.319L491.958 152.119C488.563 155.923 491.058 153.673 490.854 159.604L480.71 159.522C480.342 156.168 481.282 148.233 478.092 147.865L477.642 157.968C475.311 158.95 471.711 158.541 469.584 158.541C467.539 161.69 468.643 158.745 469.052 161.977Z" fill="#84ACC4"/>
<path fill-rule="evenodd" clip-rule="evenodd" d="M157.489 196.376L157.735 202.962V261.495L157.694 262.108C157.489 262.19 157.162 262.067 157.04 262.354C156.058 264.481 132.047 260.309 129.961 265.217C132.047 266.567 130.248 266.076 133.888 265.831C136.26 264.644 151.313 265.012 155.812 265.135C156.549 265.176 158.635 265.258 159.248 265.34C162.602 265.749 160.435 264.931 162.725 266.28C161.784 268.735 164.77 267.876 159.985 268.121C155.076 268.367 158.226 267.058 158.348 266.853C157.571 270.125 157.858 273.643 157.776 277.12C157.653 270.494 155.894 270.739 161.743 269.88C163.584 272.211 163.175 274.952 163.093 278.183H165.629L165.425 250.042L168.493 244.111C168.615 243.947 168.738 243.743 168.902 243.661L173.769 242.924C176.591 246.033 176.141 245.42 180.273 244.97L180.191 191.631L163.666 193.227C163.584 193.431 163.502 193.717 163.42 193.922C162.112 196.376 162.684 195.64 157.489 196.376Z" fill="#2F3950"/>
<path fill-rule="evenodd" clip-rule="evenodd" d="M384.136 196.253C382.255 202.062 383.4 255.277 383.973 265.258C387.041 264.726 386.918 264.317 389.127 265.422C389.208 267.671 389.086 269.88 388.963 272.13C388.799 275.32 388.84 274.175 389.127 278.183H390.722L390.558 249.674C394.485 247.424 392.358 248.937 394.69 245.501L397.226 242.556C397.266 242.311 397.471 242.27 397.635 242.188C403.361 243.62 395.958 246.647 405.693 244.888L405.734 191.468L388.881 191.713L388.227 196.008L384.136 196.253Z" fill="#2F3950"/>
<path fill-rule="evenodd" clip-rule="evenodd" d="M469.625 221.532L452.977 221.819L451.995 244.929L449.01 243.579C449.746 246.074 448.846 245.134 452.486 245.215C452.609 245.461 452.732 245.543 452.814 245.993C452.854 246.402 453.018 246.524 453.059 246.729C454.041 250.451 454 259.777 453.059 262.845C452.691 266.444 452.814 264.195 453.836 264.972C456.413 264.195 455.022 264.195 458.09 263.622C460.135 263.213 461.158 263.213 463.121 262.804C463.571 267.917 464.103 271.844 464.062 278.184H482.141C482.305 270.78 481.119 259.245 481.651 252.946L484.637 252.128L487.173 249.019C480.383 250.451 488.236 251.065 480.219 252.578C476.251 244.234 474.738 251.842 474.452 233.926C474.247 221.9 473.715 166.64 474.82 162.181L473.429 161.895V244.152H469.666L469.625 221.532Z" fill="#4C6384"/>
<path fill-rule="evenodd" clip-rule="evenodd" d="M404.956 251.269C403.32 253.478 404.629 250.737 403.607 255.073L408.433 255.196L408.229 248.487C413.055 248.201 411.992 248.855 411.869 254.296C411.828 257.936 411.583 260.799 412.115 264.481C415.591 264.481 415.591 263.867 417.882 263.99C426.349 264.399 423.608 267.221 423.977 278.183H431.626C432.321 275.729 444.06 277.038 446.964 276.834C445.737 275.688 448.396 274.42 438.456 274.788C435.552 274.911 433.303 275.566 431.789 273.929L446.146 273.357C441.361 269.062 434.325 273.725 431.748 270.534C434.407 269.512 437.27 269.962 440.256 269.962C447.373 269.962 446.146 270.698 447.373 271.393L448.723 272.171C450.359 268.244 447.496 267.303 450.523 265.258C446.392 265.053 435.88 265.585 433.589 264.767C431.503 264.031 432.975 264.89 431.871 263.703C434.693 261.986 448.641 262.845 453.059 262.845C454 259.777 454.041 250.451 453.059 246.728C453.018 246.524 452.855 246.401 452.814 245.992C452.732 245.542 452.609 245.46 452.486 245.215C451.709 248.324 453.1 247.506 447.087 247.424C436.452 247.301 432.525 248.242 425.735 248.324C427.126 242.147 427.903 241.656 424.958 239.734C423.977 239.12 424.14 240.47 423.69 239.243C423.568 238.957 423.24 239.12 422.995 239.039C423.486 234.621 424.263 216.133 422.34 213.842C419.6 217.319 423.486 223.577 420.827 227.258C418.986 229.835 419.191 224.477 418.659 230.572C417.841 239.243 421.686 228.731 421.563 238.998C421.481 247.547 422.259 243.047 424.017 248.242L413.832 248.16C416.859 239.366 417.309 251.801 417.555 240.838C417.759 231.84 416.982 224.968 417.637 213.556L416.246 216.01C415.223 218.832 415.959 240.716 416.246 242.474C414.037 241.288 416.9 243.743 414.364 240.02L414.323 228.813C413.014 225.581 413.546 229.794 413.832 226.645L413.873 213.515L410.028 213.147L410.069 241.616C409.947 247.669 410.069 242.597 411.665 246.688L404.425 247.178C406.633 250.001 403.361 246.36 406.143 249.019L407.697 250.41L404.956 251.269Z" fill="#757C94"/>
<path fill-rule="evenodd" clip-rule="evenodd" d="M547.26 191.877L548.037 208.279L552.414 209.057L552.537 222.678L552.659 223.7L552.987 244.07L557.813 244.602L556.218 256.096C555.523 256.055 555.032 255.809 554.05 256.055C554.909 258.795 554.623 257.65 556.341 259.204L558.345 261.904C558.427 261.291 558.468 260.104 558.631 259.532C559.081 257.936 558.877 258.632 559.408 257.814C561.699 261.618 558.427 260.104 562.476 262.313L561.699 260.309C562.722 259.736 564.971 259.532 567.057 257.773C566.198 249.06 566.321 235.889 566.771 227.627L569.675 226.604C571.72 223.905 571.23 208.893 571.802 204.353C572.048 202.389 573.929 183.86 573.766 182.633L569.839 182.837L569.634 174.329C567.835 176.906 568.448 178.706 568.407 182.551L562.272 183.124C560.513 193.759 564.235 196.336 559.572 205.703C557.772 201.489 557.24 196.377 555.114 192.286L547.26 191.877Z" fill="#84ACC4"/>
<path fill-rule="evenodd" clip-rule="evenodd" d="M179.005 250.369L165.425 250.042L165.629 278.183H175.487L175.569 264.808C179.782 264.972 181.827 265.544 186.408 265.585C190.621 265.626 194.753 265.381 198.925 265.953L198.639 278.183H205.838L220.849 276.466C219.908 275.729 220.317 275.893 218.722 275.443L212.832 275.157C209.56 275.238 207.474 275.975 206.042 273.929C209.519 272.252 216.023 273.193 220.317 273.275C218.886 272.171 220.154 272.784 217.986 272.13C213.609 270.78 209.028 273.316 205.551 270.862C208.046 269.226 210.828 269.757 214.591 269.757C215.818 269.757 218.313 269.676 219.418 269.962C221.708 270.534 222.322 271.721 222.485 271.475C222.567 271.312 222.853 271.762 223.058 271.884C223.058 271.884 224.244 270.044 223.672 268.121C222.894 265.258 224.899 266.649 221.258 266.444C224.162 264.44 227.926 265.217 218.027 265.176C216.104 265.176 213.814 265.299 211.973 265.258C209.11 265.217 207.965 265.053 206.165 263.704C207.106 263.254 206.819 263.254 208.578 262.886C209.56 262.681 210.132 262.681 211.114 262.64L224.858 263.172C223.712 262.108 224.899 262.763 223.017 262.067C218.354 260.39 210.91 264.358 206.042 260.309C209.846 257.773 217.536 259.122 224.162 258.632C216.718 257.977 209.519 260.104 205.797 256.914C208.619 254.091 217.659 255.237 223.999 255.196C219.009 254.95 209.887 256.341 206.042 253.519C207.637 252.169 206.206 252.946 208.537 252.128L215.409 251.801C218.231 251.842 221.095 251.801 223.917 251.801C220.972 250.86 207.146 252.21 206.328 250.451C206.206 250.164 205.878 250.246 205.633 250.083C208.046 247.874 209.887 248.283 213.691 248.365C225.267 248.569 223.181 249.06 224.326 247.138L206.86 247.71L204.283 248.733C203.138 248.937 189.722 249.674 186.776 247.547C188.249 244.397 187.308 246.401 190.171 244.152C189.394 240.92 189.353 243.988 188.045 239.652L187.881 212.41C186.981 210.652 188.29 211.183 184.486 211.551L185.099 240.879C184.895 248.242 184.24 241.452 186.367 247.179L179.046 247.628C182.482 250.205 181.5 246.81 181.704 250.983L179.005 250.369Z" fill="#626D83"/>
<path fill-rule="evenodd" clip-rule="evenodd" d="M294.721 173.389H300.529C300.325 176.702 300.161 177.684 300.448 181.161L295.907 181.488C299.957 182.96 299.63 180.261 300.325 184.515C298.28 186.028 297.748 185.578 294.967 184.965L294.721 173.389ZM248.255 139.194L249.114 142.384L272.061 142.22L272.224 181.938C278.687 181.406 270.793 177.316 286.336 178.502C286.704 178.993 286.949 179.606 287.277 180.22C287.89 181.242 287.768 181.038 288.217 181.774C289.281 183.574 288.708 182.101 289.731 184.351C290.754 186.601 291.04 188.523 291.531 190.937L295.048 190.896L295.007 186.274L300.243 186.233L300.325 208.566L295.989 209.18L295.457 209.302C300.448 209.18 304.988 208.239 308.219 210.939C302.697 213.475 306.91 210.652 302.943 212.616L302.82 219.446C302.656 220.346 302.616 221.083 302.247 221.982C303.025 222.514 304.497 222.596 303.597 223.741C303.515 223.864 303.106 224.069 303.025 224.15C302.902 224.273 302.493 224.396 302.247 224.559L303.72 239.285C303.352 242.025 302.452 238.508 303.106 241.575C307.156 241.821 304.252 241.044 307.319 243.293L307.115 213.638L312.841 213.761C313.046 213.515 313.414 212.984 313.578 213.188C313.782 213.434 314.028 212.288 316.482 211.634C316.768 211.552 318.241 211.429 318.486 211.47C318.65 211.47 318.936 211.511 319.059 211.511L341.474 211.92C345.114 213.229 342.21 211.102 344.828 214.293C347.241 213.475 348.182 213.27 350.636 214.334C350.759 219.201 351.045 223.987 350.105 228.691C354.072 226.523 354.195 227.136 357.631 227.423L363.357 227.668V226.932L360.167 227.382L358.981 225.787C354.195 224.846 355.095 226.441 350.882 225.705C350.514 220.469 351.25 215.029 351.005 209.098C346.342 210.325 343.315 210.775 337.711 210.979L319.345 210.611L319.509 177.847C325.194 177.643 334.398 176.866 339.02 178.42C337.22 174.493 333.457 176.457 323.599 176.007C324.008 174.821 324.581 173.266 324.294 171.712C323.558 168.276 324.99 169.83 321.84 168.358C319.795 170.976 320.204 164.84 320.368 172.571C320.45 175.475 320.286 173.389 321.472 176.252L318.772 175.311L318.2 210.857L312.432 211.02L312.719 177.725L309.283 176.007C309.937 175.066 307.81 175.189 311.614 175.393C310.387 173.062 313.905 173.062 308.465 173.839L304.252 173.062L303.802 170.444C300.816 171.712 301.102 171.098 297.544 171.467C294.189 172.98 295.866 171.221 295.457 170.321C289.649 170.894 291.122 170.239 285.232 170.239C284.332 171.794 284.536 170.608 284.536 173.634C282.9 172.857 282.082 172.366 280.119 171.916C277.91 175.475 280.978 173.43 277.705 174.534C274.433 175.639 276.642 175.721 275.742 173.675C272.592 174.739 275.66 172.816 273.574 176.989C273.533 170.158 273.41 163.286 273.41 156.455C273.369 147.292 271.611 138.662 275.251 140.216C269.279 138.621 273.206 139.644 269.156 139.644C267.438 139.644 268.461 139.684 267.357 139.398C266.539 131.995 270.506 142.057 269.115 130.563C267.234 131.136 267.152 127.741 266.498 134.285C266.539 134.203 266.416 134.081 266.375 134.04C263.307 132.117 264.166 139.398 264.166 139.439L255.945 139.194C255.331 128.436 257.417 130.399 252.877 128.354C250.995 131.258 251.65 136.044 251.363 139.398L248.255 139.194Z" fill="#B6BBC6"/>
<path fill-rule="evenodd" clip-rule="evenodd" d="M523.659 160.668C526.645 160.177 526.154 160.545 529.549 159.85C528.404 165.004 528.404 162.345 529.59 167.335L524.518 167.172C523.7 164.922 524.518 163.899 523.659 160.668ZM528.322 131.136C527.749 134.244 527.504 135.717 524.763 137.148C524.6 137.23 523.291 137.598 522.963 137.721C523.618 144.429 521.941 155.391 523.659 160.668C522.268 163.327 523.741 170.485 523.086 173.225L525.745 174.043L528.772 173.675C528.363 176.866 528.567 178.175 528.158 181.611C532.658 181.406 535.684 181.12 539.816 181.979C539.775 181.611 539.448 179.238 539.529 178.747C539.775 175.761 538.793 178.993 540.143 176.948C539.039 180.833 539.898 180.547 540.675 181.611C542.597 181.406 543.293 181.283 544.929 180.915C544.97 180.384 544.97 177.725 544.97 177.684C546.033 173.798 544.683 175.884 547.506 173.553L547.219 209.18C545.092 207.421 544.111 208.852 545.297 202.431C543.947 201.613 547.015 199.813 542.965 202.103C542.883 202.144 542.761 202.472 542.638 202.676L543.006 197.522C541.697 203.29 541.943 200.222 544.97 200.917C545.174 197.808 545.951 188.523 544.07 185.742C542.393 187.583 543.702 185.169 543.006 187.951V196.909C542.515 193.718 542.147 190.323 543.211 187.092C542.924 186.928 542.515 186.478 542.352 186.724L538.957 185.374C541.615 183.901 538.18 185.456 542.474 185.128C542.597 185.128 542.883 185.169 543.006 185.128C543.129 185.128 543.415 185.087 543.497 185.047C545.869 184.106 544.806 186.11 545.01 182.838C543.333 181.856 534.825 181.611 532.085 181.856C527.095 182.347 529.958 180.997 528.24 183.697C530.571 187.092 527.217 184.065 532.167 185.66L533.844 186.192C534.089 186.274 534.457 186.315 534.703 186.478L528.117 185.497C528.608 189.873 529.058 196.131 528.24 199.854C528.485 200.017 528.854 199.895 528.976 200.222C530.326 203.371 528.158 199.158 532.412 201.694C529.794 201.244 529.835 201.449 528.322 202.431L528.526 205.826C528.649 207.175 528.076 205.867 528.854 208.975L547.056 209.016C553.068 209.343 551.678 208.321 552.25 212.616L523.413 212.084C522.841 214.702 522.963 219.406 522.841 222.678L539.407 222.964C539.898 218.915 538.22 221.41 541.084 222.473L552.537 222.678L552.414 209.057L548.037 208.28L547.26 191.877L546.769 174.33C546.319 174.166 545.747 174.371 544.356 173.225C544.151 173.389 543.211 173.88 543.006 173.921L538.18 173.88C535.275 173.798 532.289 173.839 529.59 173.798L529.508 138.498C534.212 137.517 536.912 139.644 540.429 137.721C540.307 135.84 540.879 138.048 540.143 135.84C539.693 134.571 539.407 134.49 538.957 133.917L539.039 137.476L534.744 137.271L534.335 136.576C531.308 135.758 533.271 137.271 531.676 135.144C533.557 131.749 534.785 130.563 533.148 125.818C531.144 127.659 532.658 125.409 531.594 128.354C531.267 129.336 531.349 130.154 531.308 131.095L528.322 131.136Z" fill="#9BA4B4"/>
<path fill-rule="evenodd" clip-rule="evenodd" d="M0.828613 240.307V278.183H20.0124C19.2761 275.77 19.7261 276.22 19.7261 274.543L20.0942 263.54C20.1351 261.658 20.3396 263.335 19.9715 261.454C22.3439 263.049 31.3836 263.703 34.1242 258.181C35.474 255.482 32.7334 260.145 34.7786 256.054L30.9337 254.337C28.7249 253.764 18.1718 252.905 16.9855 254.337C21.9349 253.887 25.9025 254.296 30.6883 254.173C38.9917 253.887 36.2103 250.451 37.4374 249.101C41.9368 248.774 42.9594 247.628 47.0497 248.528C44.3501 246.401 44.7182 246.442 44.2274 241.861L42.4685 244.111C39.0735 242.106 25.6162 244.847 22.9575 244.765C22.6302 244.724 18.6626 244.724 18.6626 244.724C15.104 245.747 16.1675 246.688 16.1675 246.688C19.1534 245.788 15.8402 239.039 15.8402 239.039L12.3225 238.957C6.71874 239.816 6.96416 241.043 0.828613 240.307Z" fill="#9BA4B4"/>
<path fill-rule="evenodd" clip-rule="evenodd" d="M263.103 243.824C268.093 244.029 267.479 244.724 269.647 241.656C269.893 242.802 270.097 244.888 270.302 245.542C270.956 247.669 270.179 246.769 271.774 247.874C274.596 249.387 276.355 251.841 276.355 256.586C276.642 256.791 278.237 257.282 278.564 257.609L277.869 269.839C277.869 275.852 277.419 272.13 278.769 273.602L280.855 274.788L280.977 265.421H284.904C288.626 265.421 287.849 266.158 290.712 264.562C289.035 263.008 290.958 264.317 288.585 263.54L285.559 262.885C287.195 260.349 284.659 260.881 288.626 261.986C290.712 260.104 289.363 262.354 289.935 258.877L286.131 259.286C287.113 257.486 289.485 257.936 289.731 257.241C289.854 256.954 290.222 257.077 290.385 256.914C289.24 254.705 286.868 255.155 286.663 254.5C286.54 254.255 286.213 254.377 286.009 254.255C290.303 254.459 289.035 255.4 290.385 252.66L287.44 250.614C290.794 249.265 289.69 250.287 290.344 248.406C287.931 246.892 289.444 247.424 285.927 247.792L286.131 245.747L285.722 214.333L268.993 213.965L263.103 213.474V243.824Z" fill="#4C6384"/>
<path fill-rule="evenodd" clip-rule="evenodd" d="M272.224 181.937C272.101 187.868 272.306 193.881 272.306 199.853C272.306 202.266 272.551 206.439 272.388 208.484C271.692 216.378 270.015 208.811 268.993 213.965L285.722 214.333L286.131 245.747L290.344 245.501C290.876 242.925 291.203 246.197 289.976 244.07C289.076 242.434 289.935 245.174 288.749 242.393C292.758 242.925 293.903 243.579 296.276 240.716C295.621 239.611 296.153 238.098 290.958 238.507C292.921 238.793 294.394 238.671 295.948 237.321L295.498 234.212L290.344 234.335L290.181 227.708L295.457 227.627L295.948 211.388L289.976 211.02C289.854 211.02 289.567 210.979 289.363 210.938L295.457 209.302L295.989 209.179L289.24 209.465L294.558 207.543C293.78 204.312 294.353 193.308 295.048 190.895L291.531 190.936C291.04 188.523 290.754 186.6 289.731 184.351C288.708 182.101 289.281 183.573 288.217 181.774C287.768 181.037 287.89 181.242 287.277 180.219C286.949 179.606 286.704 178.992 286.336 178.501C270.793 177.315 278.687 181.406 272.224 181.937Z" fill="#84ACC4"/>
<path fill-rule="evenodd" clip-rule="evenodd" d="M570.043 278.183H570.493L570.739 262.599C578.47 262.804 571.271 264.399 579.001 264.153C581.987 264.072 585.873 263.663 588.368 264.358C591.845 265.258 588.736 265.176 593.072 264.522C591.763 264.644 591.927 264.235 590.945 265.217L590.25 266.321C590.127 266.608 590.004 267.426 590.086 267.835C597.408 269.635 607.634 268.407 616.019 268.816L616.469 274.216V264.235C613.769 265.176 613.851 265.34 611.315 264.562L615.283 263.172C608.82 261.331 610.661 265.299 609.802 259.613C610.088 262.026 609.515 263.254 608.779 265.421L607.511 243.538L608.247 240.961C611.888 240.388 610.661 241.411 612.297 239.08L589.227 239.284C588.368 241.943 589.636 236.462 589.391 241.288C589.309 243.088 588.082 240.307 589.227 243.129L604.73 242.761L604.525 246.688C601.826 247.874 595.199 247.465 591.681 247.383C586.978 247.26 582.969 244.479 582.928 244.397C582.846 244.152 582.478 244.274 582.314 244.192L586.528 243.62L588.327 227.504C582.969 226.686 586.364 227.463 582.928 228.485C577.365 230.081 574.175 227.954 568.285 229.181L567.998 233.189L582.724 233.312C580.065 234.866 579.042 234.417 579.042 234.417C575.811 234.744 570.412 233.476 568.121 234.785C569.839 237.852 574.011 235.316 579.042 236.012L581.415 236.707C581.578 236.462 581.946 236.912 582.151 237.034C578.592 237.648 577.447 237.239 573.807 237.157L569.757 237.321C569.553 237.402 569.225 237.525 569.062 237.566C568.898 237.607 568.53 238.057 568.407 237.852C568.285 237.648 567.957 238.016 567.753 238.18C569.389 239.366 570.943 239.039 571.311 239.039L581.128 239.898C579.819 240.675 580.678 240.266 579.41 240.388C576.915 240.716 570.861 239.325 568.121 240.716C570.084 244.724 577.979 239.775 581.006 242.434C579.533 243.783 571.68 243.006 568.775 242.679L568.244 247.424C573.929 247.751 579.042 246.319 580.678 247.547C578.919 249.224 578.51 248.692 573.888 248.528C570.452 248.446 570.084 247.833 567.957 249.265L579.86 250.042C579.942 250.246 579.942 250.533 579.983 250.696C582.355 258.672 581.946 254.009 593.481 254.091C597.694 254.091 601.048 254.173 605.384 253.805C601.457 257.936 598.88 254.909 589.514 256.055L601.866 256.914C604.73 257.486 603.216 256.75 604.811 259.04C599.453 257.732 593.849 258.754 588.368 258.263C587.427 256.709 589.718 255.686 584.973 254.746C582.601 254.296 583.01 253.764 580.76 255.85L580.106 256.954C580.024 256.832 579.983 257.363 579.86 257.568C577.447 257.323 572.089 256.668 569.798 257.527C566.648 258.672 570.412 255.564 567.876 258.959C578.674 259.45 578.388 256.75 581.537 260.309C579.942 263.499 583.173 263.049 576.506 262.722C572.702 262.558 568.489 256.873 570.043 278.183Z" fill="#8B94A4"/>
<path fill-rule="evenodd" clip-rule="evenodd" d="M42.4686 244.111L44.2274 241.861C44.7183 246.442 44.3501 246.401 47.0498 248.528C50.2811 250.86 50.6084 252.414 50.9765 256.791C54.6987 257.936 53.1035 266.28 52.3672 269.307L55.3123 269.716C55.5168 261.74 54.9442 268.162 57.0302 265.422H60.4252L60.0162 247.547L64.5565 247.015C64.0248 250.901 64.3929 261.454 64.3929 265.667L65.5791 265.994C65.2928 261.331 66.7244 247.138 64.4338 244.642L60.0571 244.724V214.578L37.8464 213.269L37.8055 243.743L42.4686 244.111Z" fill="#4C6384"/>
<path fill-rule="evenodd" clip-rule="evenodd" d="M341.392 245.665L342.987 245.747L342.824 214.537C337.629 213.31 320.163 213.924 314.273 214.456L314.6 245.42L341.392 245.665Z" fill="#287BA3"/>
<path fill-rule="evenodd" clip-rule="evenodd" d="M382.909 216.296L382.623 216.051V224.559C381.641 227.177 384.177 222.309 381.723 225.295C380.292 226.972 380.823 223.332 381.273 226.072C381.641 228.036 380.578 225.295 382.05 227.177C382.132 227.258 382.5 227.79 382.582 227.627C382.623 227.463 382.991 227.954 383.114 228.158L377.715 228.649C378.205 228.731 378.86 228.936 380.087 230.04C382.746 232.371 377.592 231.39 383.032 232.085L381.437 233.762C380.537 236.053 382.5 234.13 382.132 235.971L381.069 237.484C381.028 237.362 380.782 237.73 380.701 237.893C384.464 237.853 382.091 237.934 382.705 238.63C384.218 247.383 384.055 256.423 383.523 265.422C387.204 265.626 386.673 264.235 388.227 267.139C384.873 270.044 366.589 268.326 361.926 268.776C362.458 263.499 362.498 259.491 361.353 254.95L361.558 252.332C361.803 251.555 362.089 252.087 362.171 250.083L359.103 247.956C354.768 248.856 348.878 248.896 345.074 248.16C345.033 247.915 345.033 247.588 345.033 247.383C344.992 247.179 344.992 246.851 344.992 246.606L344.337 240.225C344.01 241.534 343.11 245.501 342.987 245.747L341.392 245.665L340.288 246.32C337.834 248.119 338.447 247.383 337.915 249.346C338.12 249.265 338.365 249.142 338.488 249.101C338.57 249.06 338.897 248.896 339.02 248.856L340.124 248.528C341.024 248.324 341.392 248.406 342.292 248.406C342.742 251.228 342.415 249.101 342.251 251.555L342.292 278.183H389.127C388.84 274.175 388.8 275.32 388.963 272.13C389.086 269.88 389.209 267.671 389.127 265.422C386.918 264.317 387.041 264.726 383.973 265.258C383.4 255.277 382.255 202.062 384.136 196.254L383.032 210.938C381.6 212.247 377.796 212.083 383.237 212.165L382.909 216.296Z" fill="#626D83"/>
<path fill-rule="evenodd" clip-rule="evenodd" d="M99.6109 242.761V211.224L71.5919 211.265L71.8373 242.802L99.6109 242.761Z" fill="#287BA3"/>
<path fill-rule="evenodd" clip-rule="evenodd" d="M222.935 221.819L222.772 241.575C225.226 242.434 219.418 242.107 224.735 241.78C225.635 241.698 227.148 241.411 228.048 241.207L237.62 239.284C241.056 238.385 238.52 239.612 241.424 237.812L240.974 240.716C243.755 242.966 240.974 240.225 242.446 242.557C243.223 243.743 242.283 242.925 243.51 244.765L248.214 244.479L248.582 151.342C248.582 145.983 250.382 142.138 245.228 142.016C243.919 147.006 244.001 213.842 244.614 222.391C240.892 222.759 237.047 222.637 233.284 222.432C229.603 222.269 226.576 221.123 222.935 221.819Z" fill="#495568"/>
<path fill-rule="evenodd" clip-rule="evenodd" d="M362.089 238.425L364.421 238.057C363.357 239.57 363.398 238.384 363.439 240.593C363.439 240.634 364.339 242.925 364.421 243.047C364.257 246.197 364.298 251.678 363.562 253.6C362.621 250.778 364.298 252.251 362.662 247.506L359.103 247.956L362.171 250.083C362.089 252.087 361.803 251.555 361.558 252.332L361.353 254.95C362.498 259.491 362.458 263.499 361.926 268.776C366.589 268.326 384.873 270.044 388.227 267.14C386.673 264.235 387.204 265.626 383.523 265.422C384.055 256.423 384.218 247.383 382.705 238.63L378.901 239.53C382.459 227.586 374.074 234.049 365.035 230.858L363.562 236.216C361.967 234.498 363.071 236.666 362.335 233.844C361.517 230.735 362.703 229.263 363.357 227.668L357.631 227.422C358.49 230.081 357.754 229.058 359.308 230.531C358.94 229.181 360.617 230.326 357.631 229.672C358.981 235.317 358.081 232.453 357.59 233.926C353.786 233.639 354.4 233.23 351.25 234.049L358.449 234.498L356.772 238.63C356.813 238.63 360.167 239.161 360.208 239.161C364.953 238.916 359.799 240.225 362.089 238.425Z" fill="#8B94A4"/>
<path fill-rule="evenodd" clip-rule="evenodd" d="M66.3153 266.321H85.9899C86.1127 266.076 86.2763 265.544 86.3172 265.667L88.6078 261.372C96.7885 261.249 100.102 260.145 107.26 259.49L106.155 258.55C105.705 257.323 105.746 256.668 105.705 255.318C105.624 252.946 106.155 249.469 106.524 248.937C105.296 248.324 106.155 248.774 105.215 247.915C105.174 247.915 104.11 246.688 103.865 246.483C93.8025 246.851 74.9869 245.215 66.3153 247.015V266.321Z" fill="#287BA3"/>
<path fill-rule="evenodd" clip-rule="evenodd" d="M295.457 227.627L295.498 234.212L295.948 237.321C294.394 238.671 292.921 238.793 290.958 238.507C296.153 238.098 295.621 239.611 296.275 240.716C293.903 243.579 292.758 242.925 288.749 242.393C289.935 245.174 289.076 242.434 289.976 244.07C291.203 246.197 290.876 242.925 290.344 245.501L286.131 245.747L285.927 247.792C289.444 247.424 287.931 246.892 290.344 248.406C289.69 250.287 290.794 249.265 287.44 250.614L290.385 252.66C289.035 255.4 290.303 254.459 286.009 254.255C286.213 254.378 286.54 254.255 286.663 254.5C286.868 255.155 289.24 254.705 290.385 256.914C290.222 257.077 289.854 256.955 289.731 257.241C289.485 257.936 287.113 257.486 286.131 259.286L289.935 258.877C290.058 259.041 290.222 259.081 290.263 259.368L291.49 265.422C292.594 261.29 292.103 263.09 291.735 258.795C295.089 259.736 293.821 259.654 297.257 259.654L301.511 258.632C298.198 257.077 298.157 258.509 294.639 257.936C291.244 257.445 294.189 258.918 291.694 256.914C294.312 252.905 293.249 257.241 299.629 255.359L301.838 254.214C298.157 253.928 295.498 253.519 292.144 254.623C292.021 252.373 292.103 252.864 292.103 250.942C292.103 249.469 292.062 249.019 292.062 247.383C298.239 248.692 300.938 247.179 307.36 246.974C308.628 248.447 307.974 246.729 308.137 249.428L308.506 266.199C309.528 268.612 308.465 255.605 308.628 253.437C308.628 253.273 308.955 251.228 308.955 251.105C309.692 248.692 308.587 250.737 309.978 249.142L337.915 249.346C338.447 247.383 337.833 248.119 340.288 246.32L341.392 245.665L314.6 245.42L314.273 214.456C319.427 212.697 338.488 213.065 344.828 214.292C342.21 211.102 345.114 213.229 341.474 211.92L319.059 211.511C318.936 211.511 318.65 211.47 318.486 211.47C318.241 211.429 316.768 211.551 316.482 211.633C314.028 212.288 313.782 213.433 313.578 213.188C313.414 212.983 313.046 213.515 312.841 213.76L313.209 246.033L308.219 245.992C307.647 245.092 307.401 246.197 307.319 243.293C304.252 241.043 307.156 241.82 303.106 241.575C302.452 238.507 303.352 242.025 303.72 239.284L302.247 224.559C302.493 224.395 302.902 224.273 303.024 224.15C303.106 224.068 303.515 223.863 303.597 223.741C304.497 222.595 303.024 222.514 302.247 221.982C302.615 221.082 302.656 220.346 302.82 219.446L302.943 212.615C306.91 210.652 302.697 213.474 308.219 210.938C304.988 208.238 300.448 209.179 295.457 209.302L289.363 210.938C289.567 210.979 289.854 211.02 289.976 211.02L295.948 211.388L295.457 227.627Z" fill="#C6CBD5"/>
<path fill-rule="evenodd" clip-rule="evenodd" d="M96.0113 207.584L95.8068 174.739H76.3776L76.5412 207.911L96.0113 207.584Z" fill="#287BA3"/>
<path fill-rule="evenodd" clip-rule="evenodd" d="M521.082 233.599L520.632 234.171L521.164 234.867C521.327 239.734 523.904 244.806 514.292 241.902C514.414 242.147 514.66 242.393 514.742 242.556C514.824 242.72 515.069 243.006 515.151 243.17C516.787 246.238 516.46 244.152 515.519 245.215C513.76 245.338 514.005 244.97 512.492 245.501C509.261 246.565 511.388 245.297 509.179 247.465L515.969 247.547C516.051 247.833 516.051 248.16 516.092 248.406L516.46 253.559C516.46 255.727 516.746 256.75 515.723 258.632L516.173 262.027C518.014 255.727 516.337 261.454 518.546 258.754C522.882 260.39 522.595 259.409 527.054 259.409C528.608 259.368 529.958 259.572 531.267 259.613C534.13 259.613 534.048 259.49 536.83 259.163C535.848 264.031 535.603 261.331 537.28 266.28L536.421 259.327L542.393 259.49C545.624 259.777 544.765 259.9 547.915 259.041L548.365 262.027C547.628 261.086 547.342 263.581 548.405 259.736C551.719 259.654 552.659 259.613 553.641 260.636L553.559 261.168C554.868 258.182 553.437 259.859 556.341 259.204C554.623 257.65 554.909 258.795 554.05 256.055C555.032 255.809 555.523 256.055 556.218 256.095L557.813 244.602L552.987 244.07L552.659 223.7L552.25 244.642L521.245 244.724L521.082 233.599Z" fill="#B6BBC6"/>
<path fill-rule="evenodd" clip-rule="evenodd" d="M337.711 210.979L338.406 184.024L339.02 178.42C334.398 176.866 325.194 177.643 319.509 177.847L319.345 210.611L337.711 210.979Z" fill="#287BA3"/>
<path fill-rule="evenodd" clip-rule="evenodd" d="M278.769 273.602C277.992 275.443 277.746 275.688 278.033 278.183H336.034L336.075 268.816L282.082 268.407C282.286 268.162 282.532 267.835 282.736 267.63L284.904 265.421H280.978L280.855 274.788L278.769 273.602Z" fill="#626D83"/>
<path fill-rule="evenodd" clip-rule="evenodd" d="M238.806 266.035C238.888 265.79 238.97 265.176 239.051 265.34C239.174 265.585 238.765 264.685 240.933 263.417C241.874 265.299 240.851 270.085 244.369 269.307C246.209 267.999 245.555 268.858 245.964 266.321C246.169 264.931 245.964 263.376 245.923 262.068C249.645 262.108 250.013 261.29 250.504 264.972C250.463 261.945 250.586 263.745 253.572 263.376C255.331 263.172 257.008 263.458 258.849 263.54L259.299 257.773L263.021 257.854C257.99 253.764 261.671 252.455 263.348 248.856L253.695 248.978C260.935 249.51 266.048 247.833 271.774 247.874C270.179 246.77 270.956 247.669 270.302 245.542C270.097 244.888 269.893 242.802 269.647 241.657C267.479 244.724 268.093 244.029 263.103 243.824C262.039 243.906 258.93 243.088 256.313 243.497C252.427 244.111 253.531 244.765 248.214 244.479L243.51 244.765C242.283 242.925 243.223 243.743 242.446 242.556C240.974 240.225 243.755 242.966 240.974 240.716C243.51 243.784 241.71 241.166 242.324 244.152C239.338 243.252 238.806 243.743 236.024 243.702C236.106 246.892 236.433 243.661 238.07 246.688L235.37 247.547L238.397 249.265C237.538 253.641 238.029 252.373 236.924 252.782L235.493 253.519C235.656 253.682 235.984 253.6 236.065 253.887C236.229 254.541 237.824 254.009 238.029 257.691C238.274 262.19 237.088 261.127 238.806 266.035Z" fill="#9BA4B4"/>
<path fill-rule="evenodd" clip-rule="evenodd" d="M522.963 239.898C525.99 238.385 539.243 239.489 543.538 239.366C545.787 239.325 548.651 238.957 550.532 239.898C549.878 242.393 552.046 241.861 544.928 241.861H529.426C525.336 241.984 523.822 243.089 522.963 239.898ZM522.881 223.7C531.471 222.841 541.288 223.659 550.041 223.537C551.023 225.868 550.328 233.722 550.819 237.935C546.115 238.548 527.34 238.671 522.963 237.976L522.881 223.7ZM526.358 181.61L526.44 181.12L526.113 201.735L525.908 208.852L521.736 209.016C519.445 211.306 517.4 209.588 514.864 211.143L521.491 211.265L521.163 227.668L521.082 233.599L521.245 244.725L552.25 244.643L552.659 223.7L552.536 222.678L541.083 222.473C538.22 221.41 539.897 218.914 539.406 222.964L522.84 222.678C522.963 219.405 522.84 214.701 523.413 212.084L552.25 212.615C551.678 208.32 553.068 209.343 547.055 209.016L528.853 208.975C528.076 205.866 528.649 207.175 528.526 205.825L528.322 202.43C529.835 201.449 529.794 201.244 532.412 201.694C528.158 199.158 530.326 203.371 528.976 200.222C528.853 199.894 528.485 200.017 528.24 199.853C529.058 196.131 528.608 189.873 528.117 185.496L534.703 186.478C534.457 186.314 534.089 186.273 533.844 186.192L532.166 185.66C527.217 184.065 530.571 187.091 528.24 183.696C529.958 180.997 527.094 182.347 532.085 181.856C534.825 181.61 543.333 181.856 545.01 182.837C544.806 186.11 545.869 184.105 543.497 185.046C543.415 185.087 543.129 185.128 543.006 185.128C542.883 185.169 542.597 185.128 542.474 185.128C538.179 185.455 541.615 183.901 538.956 185.374L542.351 186.723C542.515 186.478 542.924 186.928 543.21 187.091C542.147 190.323 542.515 193.718 543.006 196.908V187.95C543.701 185.169 542.392 187.582 544.069 185.742C545.951 188.523 545.174 197.808 544.969 200.917C541.942 200.222 541.697 203.289 543.006 197.522L542.638 202.676C542.761 202.471 542.883 202.144 542.965 202.103C547.014 199.812 543.947 201.612 545.297 202.43C544.11 208.852 545.092 207.421 547.219 209.179L547.505 173.552C544.683 175.884 546.033 173.798 544.969 177.684C544.969 177.725 544.969 180.383 544.928 180.915C543.292 181.283 542.597 181.406 540.674 181.61C539.897 180.547 539.038 180.833 540.143 176.947C538.793 178.993 539.775 175.761 539.529 178.747C539.447 179.238 539.775 181.61 539.815 181.979C535.684 181.12 532.657 181.406 528.158 181.61C528.567 178.174 528.362 176.866 528.771 173.675L525.745 174.043L526.358 181.61Z" fill="#DFE1DE"/>
<path fill-rule="evenodd" clip-rule="evenodd" d="M556.341 259.204C553.437 259.859 554.868 258.182 553.559 261.168L553.641 260.636C552.659 259.613 551.719 259.654 548.405 259.736C547.342 263.581 547.628 261.086 548.364 262.027L547.915 259.041C544.765 259.9 545.624 259.777 542.393 259.491C543.947 262.681 544.111 265.34 543.252 267.958H515.969L516.173 262.027L515.723 258.632C511.715 258.713 511.756 258.918 510.038 260.309C511.388 263.131 507.297 258.427 511.265 261.618C513.269 263.213 513.228 262.395 514.292 262.886C510.651 262.886 511.306 264.481 507.543 265.299C506.029 265.626 500.834 265.381 498.83 265.422C500.098 268.326 498.421 266.771 500.303 267.998L500.671 266.567C503.739 266.526 505.007 267.262 509.179 267.303C516.01 267.385 510.692 268.08 516.01 268.612C521.9 269.185 563.253 266.894 566.035 269.676C561.658 271.393 528.035 270.085 518.423 270.207C512.451 270.248 513.883 271.312 513.719 272.252C514.537 272.743 560.022 271.312 564.317 272.293C564.521 272.334 564.808 272.457 564.971 272.498C565.135 272.539 565.462 272.989 565.585 272.784C565.667 272.621 565.994 272.948 566.158 273.071C559.818 276.179 522.963 271.557 511.715 274.584C523.454 276.711 541.084 275.484 553.437 275.525C556.709 275.525 564.194 274.87 566.076 276.506C560.595 279.451 517.769 275.238 513.269 278.183H568.939C569.103 276.22 569.144 276.302 566.444 274.666C570.412 274.461 569.144 275.402 568.939 271.803C568.734 268.817 567.221 274.298 568.448 269.226C568.489 269.021 569.266 267.099 569.43 266.281L562.599 266.526L562.476 262.313C558.427 260.104 561.699 261.618 559.408 257.813C558.877 258.632 559.081 257.936 558.631 259.531C558.468 260.104 558.427 261.29 558.345 261.904L556.341 259.204Z" fill="#8B94A4"/>
<path fill-rule="evenodd" clip-rule="evenodd" d="M413.873 213.515L413.832 226.645C413.546 229.795 413.014 225.581 414.323 228.813L414.364 240.02C416.9 243.743 414.037 241.288 416.246 242.475C415.959 240.716 415.223 218.832 416.246 216.01L417.636 213.556C416.982 224.968 417.759 231.84 417.555 240.838C417.309 251.801 416.859 239.366 413.832 248.16L424.017 248.242C422.259 243.047 421.481 247.547 421.563 238.998C421.686 228.731 417.841 239.243 418.659 230.572C419.191 224.477 418.986 229.835 420.827 227.258C423.486 223.577 419.6 217.319 422.34 213.842C424.263 216.133 423.486 234.621 422.995 239.039C423.24 239.121 423.567 238.957 423.69 239.243C424.14 240.47 423.976 239.121 424.958 239.734C427.903 241.657 427.126 242.147 425.735 248.324C432.525 248.242 436.452 247.301 447.087 247.424C453.1 247.506 451.709 248.324 452.486 245.215C448.846 245.133 449.746 246.074 449.009 243.579L445.287 243.252C441.647 243.661 439.806 243.17 436.779 243.947C434.571 241.657 435.47 244.683 435.47 240.511C432.607 245.788 436.861 243.415 431.135 243.865C430.766 235.848 431.216 238.466 432.648 237.484C435.757 235.316 435.92 239.407 435.92 229.876C430.971 231.594 435.47 229.222 433.057 232.208L432.157 233.844C432.034 233.721 431.994 234.498 431.789 234.785C432.198 229.426 432.689 232.78 431.176 230.735L427.126 229.263C425.531 228.649 426.185 212.37 426.144 209.629C425.94 209.629 415.632 211.183 413.873 213.515Z" fill="#B6BBC6"/>
<path fill-rule="evenodd" clip-rule="evenodd" d="M510.774 236.257L498.953 235.807V278.183H500.098C500.098 277.365 499.976 276.67 499.935 275.852C499.689 272.375 499.853 275.811 499.853 273.439C499.853 269.962 499.648 270.575 500.303 267.998C498.421 266.771 500.098 268.326 498.83 265.421C500.834 265.381 506.029 265.626 507.543 265.299C511.306 264.481 510.651 262.885 514.292 262.885C513.228 262.395 513.269 263.213 511.265 261.617C507.297 258.427 511.388 263.131 510.038 260.309C511.756 258.918 511.715 258.713 515.723 258.631C516.746 256.75 516.46 255.727 516.46 253.559L516.092 248.406C516.051 248.16 516.051 247.833 515.969 247.547L509.179 247.465C511.388 245.297 509.261 246.565 512.492 245.501C514.005 244.97 513.76 245.338 515.519 245.215C516.46 244.152 516.787 246.238 515.151 243.17C515.069 243.006 514.824 242.72 514.742 242.556C514.66 242.393 514.414 242.147 514.292 241.902C523.904 244.806 521.327 239.734 521.164 234.866H515.519L513.433 243.661C508.892 243.252 510.12 238.957 510.774 236.257Z" fill="#9BA4B4"/>
<path fill-rule="evenodd" clip-rule="evenodd" d="M113.314 246.729L116.463 246.974L116.709 241.002C117.977 241.493 120.717 241.656 119.899 244.315C119.899 244.397 119.735 244.642 119.695 244.765L117.445 248.406L136.465 248.774C136.547 258.222 134.788 260.431 138.756 262.354C140.801 257.732 139.369 238.425 139.042 231.594C138.183 233.026 138.592 235.93 138.388 238.711L138.633 243.293L131.925 243.62V241.452C131.884 237.362 132.293 240.757 130.248 239.448C125.421 242.025 130.002 239.979 126.28 239.775C124.071 239.652 126.444 238.834 124.317 239.898C125.666 241.084 124.93 240.307 126.198 241.084L128.53 242.434C128.407 242.638 128.162 242.679 128.121 243.047L127.016 244.806C126.894 244.97 126.812 245.215 126.689 245.379C124.398 248.569 128.162 246.197 123.949 247.956C123.212 243.006 124.153 243.088 124.071 239.039L123.458 214.292C122.108 213.965 121.126 213.965 119.204 213.924L114.295 214.169C114.091 214.21 113.764 214.251 113.518 214.333L113.314 246.729Z" fill="#8B94A4"/>
<path fill-rule="evenodd" clip-rule="evenodd" d="M228.048 241.207L228.58 260.309C228.703 261.454 228.866 261.208 228.948 263.008L224.858 263.172L211.114 262.64C210.132 262.681 209.56 262.681 208.578 262.885C206.819 263.254 207.106 263.254 206.165 263.704C207.965 265.053 209.11 265.217 211.973 265.258C213.814 265.299 216.104 265.176 218.027 265.176C227.926 265.217 224.162 264.44 221.258 266.444C224.899 266.649 222.894 265.258 223.672 268.121C224.244 270.044 223.058 271.884 223.058 271.884C222.854 271.762 222.567 271.312 222.485 271.475C222.322 271.721 221.708 270.534 219.418 269.962C218.313 269.675 215.818 269.757 214.591 269.757C210.828 269.757 208.046 269.226 205.551 270.862C209.028 273.316 213.609 270.78 217.986 272.13C220.154 272.784 218.886 272.171 220.317 273.275C216.023 273.193 209.519 272.252 206.042 273.929C207.474 275.975 209.56 275.238 212.832 275.157L218.722 275.443C220.317 275.893 219.908 275.729 220.849 276.465L205.838 278.183H224.04L224.244 265.462C226.126 266.035 225.676 265.953 227.107 266.28L234.675 266.608L234.347 278.183H238.56C238.07 274.707 238.192 273.03 238.397 269.348L238.806 266.035C237.088 261.127 238.274 262.19 238.029 257.691C237.824 254.009 236.229 254.541 236.065 253.887C235.984 253.6 235.656 253.682 235.493 253.519L236.924 252.782C238.029 252.373 237.538 253.641 238.397 249.265L235.37 247.547L238.07 246.688C236.434 243.661 236.106 246.892 236.024 243.702C238.806 243.743 239.338 243.252 242.324 244.152C241.71 241.166 243.51 243.783 240.974 240.716L241.424 237.812C238.52 239.611 241.056 238.384 237.62 239.284L228.048 241.207Z" fill="#B6BBC6"/>
<path fill-rule="evenodd" clip-rule="evenodd" d="M342.987 245.747C343.11 245.501 344.01 241.534 344.337 240.225L344.992 246.606C344.992 246.851 344.992 247.179 345.033 247.383C345.033 247.588 345.033 247.915 345.074 248.16C348.878 248.896 354.768 248.856 359.103 247.956L362.662 247.506C364.298 252.251 362.621 250.778 363.562 253.6C364.298 251.678 364.257 246.197 364.421 243.047C359.676 242.761 360.658 244.683 357.017 242.434C358.408 238.875 358.49 239.693 362.089 240.061V238.425C359.799 240.225 364.953 238.916 360.208 239.161C360.167 239.161 356.813 238.63 356.772 238.63L358.449 234.498L351.25 234.048C354.4 233.23 353.786 233.639 357.59 233.926C358.081 232.453 358.981 235.316 357.631 229.672C360.617 230.326 358.94 229.181 359.308 230.531C357.754 229.058 358.49 230.081 357.631 227.422C354.195 227.136 354.072 226.522 350.105 228.69C351.045 223.986 350.759 219.2 350.636 214.333C348.182 213.269 347.241 213.474 344.828 214.292C338.488 213.065 319.427 212.697 314.273 214.456C320.163 213.924 337.629 213.31 342.824 214.537L342.987 245.747Z" fill="#9BA4B4"/>
<path fill-rule="evenodd" clip-rule="evenodd" d="M500.303 267.998C499.648 270.575 499.853 269.962 499.853 273.439C499.853 275.811 499.689 272.375 499.935 275.852C499.975 276.67 500.098 277.365 500.098 278.183H513.269C517.769 275.238 560.595 279.451 566.076 276.506C564.194 274.87 556.709 275.525 553.436 275.525C541.084 275.484 523.454 276.711 511.715 274.584C522.963 271.557 559.817 276.179 566.158 273.071C565.994 272.948 565.667 272.621 565.585 272.784C565.462 272.989 565.135 272.539 564.971 272.498C564.808 272.457 564.521 272.334 564.317 272.293C560.022 271.312 514.537 272.743 513.719 272.252C513.883 271.312 512.451 270.248 518.423 270.207C528.035 270.085 561.658 271.393 566.035 269.676C563.253 266.894 521.9 269.185 516.01 268.612C510.692 268.08 516.01 267.385 509.179 267.303C505.007 267.262 503.739 266.526 500.671 266.567L500.303 267.998Z" fill="#495568"/>
<path fill-rule="evenodd" clip-rule="evenodd" d="M569.675 226.604L566.771 227.627C566.321 235.889 566.198 249.06 567.057 257.773C564.971 259.531 562.722 259.736 561.699 260.309L562.476 262.313L562.599 266.526L569.43 266.281C569.266 267.099 568.489 269.021 568.448 269.226C567.221 274.298 568.734 268.817 568.939 271.802C569.143 275.402 570.411 274.461 566.444 274.666C569.143 276.302 569.103 276.22 568.939 278.183H570.043C568.489 256.873 572.702 262.558 576.506 262.722C583.173 263.049 579.942 263.499 581.537 260.309C578.388 256.75 578.674 259.45 567.875 258.959C570.411 255.564 566.648 258.672 569.798 257.527C572.088 256.668 577.447 257.323 579.86 257.568C579.983 257.364 580.024 256.832 580.106 256.954L580.76 255.85C583.01 253.764 582.601 254.296 584.973 254.746C589.718 255.686 587.427 256.709 588.368 258.263C593.849 258.754 599.453 257.732 604.811 259.041C603.216 256.75 604.73 257.486 601.866 256.914L589.513 256.055C598.88 254.909 601.457 257.936 605.384 253.805C601.048 254.173 597.694 254.091 593.481 254.091C581.946 254.009 582.355 258.672 579.983 250.696C579.942 250.533 579.942 250.246 579.86 250.042L567.957 249.265C570.084 247.833 570.452 248.447 573.888 248.528C578.51 248.692 578.919 249.224 580.678 247.547C579.042 246.32 573.929 247.751 568.244 247.424L568.775 242.679C571.679 243.006 579.533 243.784 581.005 242.434C577.979 239.775 570.084 244.724 568.121 240.716C570.861 239.325 576.915 240.716 579.41 240.389C580.678 240.266 579.819 240.675 581.128 239.898L571.311 239.039C570.943 239.039 569.389 239.366 567.753 238.18C567.957 238.016 568.284 237.648 568.407 237.852C568.53 238.057 568.898 237.607 569.062 237.566C569.225 237.525 569.552 237.403 569.757 237.321L573.806 237.157C577.447 237.239 578.592 237.648 582.151 237.034C581.946 236.912 581.578 236.462 581.415 236.707L579.042 236.012C574.011 235.316 569.839 237.852 568.121 234.785C570.411 233.476 575.811 234.744 579.042 234.417C579.042 234.417 580.065 234.867 582.723 233.312L567.998 233.189L568.284 229.181C574.175 227.954 577.365 230.081 582.928 228.486C586.364 227.463 582.969 226.686 588.327 227.504L588.082 226.727L584.196 227.095C582.028 226.89 582.192 226.931 580.392 227.054C572.62 227.463 576.179 225.622 572.579 225.827C571.148 225.909 573.193 226.318 569.675 226.604Z" fill="#B6BBC6"/>
<path fill-rule="evenodd" clip-rule="evenodd" d="M522.963 237.975C527.34 238.671 546.115 238.548 550.819 237.934C550.328 233.721 551.023 225.868 550.041 223.536C541.288 223.659 531.471 222.841 522.881 223.7L522.963 237.975Z" fill="#9BA4B4"/>
<path fill-rule="evenodd" clip-rule="evenodd" d="M431.176 230.735C432.689 232.78 432.198 229.426 431.789 234.785C431.994 234.498 432.035 233.721 432.157 233.844L433.057 232.208C435.47 229.222 430.971 231.594 435.92 229.876C435.92 239.407 435.757 235.316 432.648 237.484C431.217 238.466 430.767 235.848 431.135 243.865C436.861 243.415 432.607 245.788 435.47 240.511C435.47 244.683 434.571 241.657 436.779 243.947C439.806 243.17 441.647 243.661 445.287 243.252C444.797 239.284 445.369 241.984 445.41 239.734L445.328 236.38C445.206 233.762 445.206 231.431 445.206 228.813C445.206 223.741 445.287 218.423 445.287 213.229C442.015 213.842 443.447 213.76 440.215 213.719C438.62 211.511 439.643 210.815 439.97 209.67C438.497 213.883 440.706 212.165 436.82 212.574C432.607 213.024 438.129 212.574 434.121 212.165C432.239 211.92 434.898 211.102 430.848 212.165C432.157 216.583 430.48 224.886 431.176 230.735Z" fill="#8B94A4"/>
<path fill-rule="evenodd" clip-rule="evenodd" d="M390.722 278.184H401.234V264.685L408.76 265.422L408.433 255.196L403.607 255.073C404.629 250.737 403.32 253.478 404.956 251.269C401.807 248.651 394.771 250.083 390.558 249.674L390.722 278.184Z" fill="#626D83"/>
<path fill-rule="evenodd" clip-rule="evenodd" d="M188.045 239.652C189.353 243.988 189.394 240.92 190.171 244.152C187.308 246.401 188.249 244.397 186.776 247.547C189.722 249.674 203.138 248.937 204.283 248.733L206.86 247.71L201.788 248.16C200.684 246.524 199.048 250.901 201.338 244.97L200.316 239.039C198.884 237.198 200.07 218.996 199.825 214.333C199.579 214.292 199.252 214.251 199.048 214.21L191.112 213.597C188.004 214.783 189.026 214.292 189.108 219.364C189.149 223.577 190.458 237.239 188.045 239.652Z" fill="#8B94A4"/>
<path fill-rule="evenodd" clip-rule="evenodd" d="M409.742 174.248C410.683 179.442 410.274 185.169 410.397 190.527C410.478 194.127 410.274 202.471 411.624 205.498C419.15 208.402 421.604 205.539 421.89 198.217C422.136 191.55 421.154 190.077 425.735 184.596C427.167 184.719 431.257 184.596 432.198 184.964C435.02 185.987 433.016 186.151 435.102 188.4L436.248 187.459C440.911 183.369 437.516 182.919 440.502 180.915C443.897 178.665 445.083 182.019 445.124 182.019C445.901 183.246 445.246 182.633 445.819 184.064L449.419 190.65C452.977 196.254 449.5 199.158 452.118 203.412C453.468 201.98 453.304 202.676 453.509 197.358C453.591 194.659 453.509 192.327 453.591 189.627C453.673 185.087 453.468 178.992 454.041 174.738L452.691 185.905L448.151 183.778C446.228 181.897 447.373 180.588 444.101 179.401L443.692 173.021L441.851 176.538C441.81 176.579 441.688 176.743 441.647 176.784C436.493 182.878 438.947 181.897 436.616 184.351C419.232 180.383 425.858 184.351 421.481 186.069L411.746 186.028C411.665 183.246 412.033 178.542 411.133 176.17C410.151 173.511 413.014 175.72 409.742 174.248Z" fill="#95C2DC"/>
<path fill-rule="evenodd" clip-rule="evenodd" d="M604.034 202.103C604.893 204.107 605.384 205.661 606.08 207.379C607.634 211.02 608.288 209.22 608.943 211.265C605.18 213.678 597.203 212.165 592.254 212.369L607.961 212.206C609.475 212.983 609.761 211.838 610.743 217.728L612.951 236.421C609.475 235.93 599.126 235.03 596.263 237.321C598.39 238.139 610.211 238.589 612.542 237.402C615.078 240.348 611.274 241.043 616.469 239.448V192.531C614.219 192.531 610.865 192.286 608.82 192.777C605.466 193.554 607.92 193.595 604.075 194.945L604.034 202.103Z" fill="#95C2DC"/>
<path fill-rule="evenodd" clip-rule="evenodd" d="M312.555 266.485L314.396 261.331C319.918 261.413 331.78 259.45 334.847 259.981L336.034 265.462L336.075 268.816L336.034 278.183H337.711L337.915 249.346L309.978 249.142L309.774 265.421L312.555 266.485Z" fill="#287BA3"/>
<path fill-rule="evenodd" clip-rule="evenodd" d="M157.694 262.108L157.735 261.495L153.726 260.881L153.767 231.88L141.537 231.921L141.455 261.454C145.791 262.19 153.358 262.067 157.694 262.108Z" fill="#8B94A4"/>
<path fill-rule="evenodd" clip-rule="evenodd" d="M289.936 258.877C289.363 262.354 290.713 260.104 288.627 261.986C284.659 260.881 287.195 260.349 285.559 262.886L288.586 263.54C290.958 264.317 289.036 263.008 290.713 264.563C287.849 266.158 288.627 265.422 284.904 265.422L282.736 267.63C282.532 267.835 282.287 268.162 282.082 268.407L336.075 268.817L336.034 265.462L332.925 267.139C330.266 263.867 333.498 265.217 327.894 264.808L316.809 265.094C315.132 265.503 315.623 266.035 312.555 266.485L309.774 265.422L309.978 249.142C308.588 250.737 309.692 248.692 308.956 251.105C308.956 251.228 308.628 253.273 308.628 253.437C308.465 255.605 309.528 268.612 308.506 266.199H302.288L302.084 249.306L308.138 249.428C307.974 246.729 308.628 248.447 307.36 246.974C300.939 247.179 298.239 248.692 292.063 247.383C292.063 249.019 292.103 249.469 292.103 250.942C292.103 252.864 292.022 252.373 292.144 254.623C295.498 253.519 298.157 253.928 301.838 254.214L299.63 255.359C293.249 257.241 294.312 252.905 291.694 256.914C294.19 258.918 291.244 257.445 294.639 257.936C298.157 258.509 298.198 257.077 301.511 258.632L297.257 259.654C293.821 259.654 295.089 259.736 291.735 258.795C292.103 263.09 292.594 261.29 291.49 265.422L290.263 259.368C290.222 259.081 290.058 259.041 289.936 258.877Z" fill="#8B94A4"/>
<path fill-rule="evenodd" clip-rule="evenodd" d="M579.369 84.6281L578.429 86.8369C582.56 86.8369 586.691 87.246 590.904 87.2051C595.854 87.1232 597.981 88.2276 602.603 87.7368C601.007 86.5915 598.717 86.8778 596.099 86.5506C595.976 79.2698 593.522 74.3204 593.931 65.6898L597.776 63.6446L597.694 58.6952L593.481 58.5316L594.79 59.5133C595.976 60.5768 596.263 58.2453 596.344 62.9083C593.154 64.299 589.391 63.8491 585.75 63.8491C576.997 63.8082 579.492 63.9309 578.51 61.0676L582.396 58.5316L578.224 58.777L577.774 63.6037C582.805 66.6714 582.846 66.426 581.455 72.8888C580.883 75.5884 579.451 82.8693 579.369 84.6281Z" fill="#B1AEAE"/>
<path fill-rule="evenodd" clip-rule="evenodd" d="M582.56 54.3595C585.423 56.5683 582.437 53.5005 583.91 56.0775C584.36 56.8137 583.991 56.8546 584.973 58.4908L593.972 58.6135C593.399 56.691 591.968 52.0689 592.418 50.1055C593.072 47.4877 591.722 49.1648 594.135 47.8967L591.927 46.4242C590.413 45.1971 589.513 46.3424 590.127 38.0799C590.413 33.7441 591.927 30.1446 591.027 25.4816C590.659 23.5182 590.086 23.191 589.922 20.205L590.781 4.86614C591.313 3.18909 589.882 4.70252 591.886 3.2709C588.368 1.75746 589.186 2.08469 586.364 0.203125C586.241 0.448547 586.077 0.571258 585.996 1.0212C585.955 1.51204 584.891 2.82096 584.932 5.31608C584.973 6.05234 585.382 8.58837 585.505 10.7972C585.75 15.4602 585.996 19.4278 584.932 23.8863C583.092 31.7398 586.2 35.6666 585.423 42.6611C585.3 43.9291 585.341 44.2154 584.728 45.1971L581.742 47.9785C584.769 48.9193 583.296 49.9419 582.56 54.3595Z" fill="#B6BBC6"/>
<path fill-rule="evenodd" clip-rule="evenodd" d="M187.881 212.411L188.044 239.652C190.458 237.239 189.149 223.577 189.108 219.364C189.026 214.292 188.004 214.783 191.112 213.597L199.048 214.21C199.252 214.251 199.579 214.292 199.825 214.333C200.07 218.996 198.884 237.198 200.316 239.039L200.97 238.18C201.011 238.139 201.624 237.075 201.788 236.83L205.592 236.953C212.832 236.707 208.455 237.239 210.991 240.47C211.114 238.507 210.991 234.744 210.951 234.13C210.951 233.844 210.828 231.39 210.869 230.572L211.278 213.31C212.75 214.333 213.446 213.188 213.446 219.405C213.446 222.473 212.873 237.116 213.691 239.366C213.732 239.121 213.773 238.548 213.773 238.671L213.977 216.092C214.959 213.229 213.2 215.274 215.941 213.515L216.104 232.208C216.309 232.044 216.35 231.512 216.35 231.635L216.554 217.687C216.841 213.269 215.532 215.846 217.945 213.719C219.009 214.824 218.599 214.169 218.927 216.092L218.968 227.954C218.968 232.412 218.845 239.898 219.663 244.152L213.487 243.579C209.233 243.088 210.337 245.256 210.173 240.757C208.905 242.229 209.642 240.634 208.455 244.152C206.901 243.579 207.637 243.743 205.551 244.234C203.302 244.806 204.079 244.929 201.338 244.97C199.048 250.901 200.684 246.524 201.788 248.16L206.86 247.71L224.326 247.138C224.244 244.152 224.612 246.606 222.322 243.293L219.131 243.661C219.99 238.63 219.54 230.408 219.499 225.418C219.377 217.687 218.845 218.914 220.481 213.269L221.136 210.652C221.585 208.443 221.258 213.147 221.381 208.525C217.168 208.893 209.805 209.425 210.746 212.411C209.028 214.906 210.051 211.02 210.092 216.828L210.296 230.817C207.31 231.226 204.57 232.003 202.443 230.408C201.788 236.298 202.074 233.312 202.647 234.212C199.743 225.377 201.379 218.423 200.438 208.811C199.988 208.893 194.057 211.633 187.881 212.411Z" fill="#B6BBC6"/>
<path fill-rule="evenodd" clip-rule="evenodd" d="M36.0057 257.895L36.2103 278.184H52.9398L52.6126 274.748C52.5717 274.584 52.5717 274.339 52.5717 274.175L52.3672 269.308C53.1035 266.281 54.6987 257.936 50.9765 256.791L51.0583 258.264L36.0057 257.895Z" fill="#9BA4B4"/>
<path fill-rule="evenodd" clip-rule="evenodd" d="M431.625 278.183H464.062C464.103 271.843 463.571 267.917 463.121 262.804C461.158 263.213 460.135 263.213 458.09 263.622C455.022 264.194 456.413 264.194 453.836 264.972C452.814 264.194 452.691 266.444 453.059 262.845C448.641 262.845 434.693 261.986 431.871 263.704C432.975 264.89 431.503 264.031 433.589 264.767C435.879 265.585 446.392 265.053 450.523 265.258C447.496 267.303 450.359 268.244 448.723 272.171L447.373 271.393C446.146 270.698 447.373 269.962 440.256 269.962C437.27 269.962 434.407 269.512 431.748 270.535C434.325 273.725 441.361 269.062 446.146 273.357L431.789 273.93C433.303 275.566 435.552 274.911 438.456 274.788C448.396 274.42 445.737 275.688 446.964 276.834C444.06 277.038 432.321 275.729 431.625 278.183Z" fill="#B6BBC6"/>
<path fill-rule="evenodd" clip-rule="evenodd" d="M590.904 235.275C590.659 234.498 590.495 230.122 589.636 227.667L611.274 227.381L609.638 232.494C606.243 232.576 602.725 232.535 599.453 232.535C597.981 232.535 595.322 232.289 594.299 232.371C588.695 232.821 592.581 232.044 590.372 233.762C594.79 232.78 601.294 232.944 606.325 233.026C611.561 233.108 608.984 232.903 610.252 233.926C608.697 236.053 611.724 235.275 606.325 235.357L590.904 235.275ZM590.413 227.095C590.822 223.577 593.604 226.318 591.968 216.664C597.694 216.46 603.257 216.378 608.902 216.787C606.857 224.518 609.556 224.231 610.129 226.808L590.413 227.095ZM588.859 223.086L588.082 226.727L588.327 227.504L586.528 243.62L582.314 244.192C582.478 244.274 582.846 244.152 582.928 244.397C582.969 244.479 586.977 247.26 591.681 247.383C595.199 247.465 601.825 247.874 604.525 246.688L604.73 242.761L589.227 243.129C588.082 240.307 589.309 243.088 589.391 241.288C589.636 236.462 588.368 241.943 589.227 239.284L612.297 239.079C610.661 241.411 611.888 240.388 608.247 240.961L607.511 243.538C609.597 243.497 610.333 243.333 612.215 243.211C614.342 243.129 614.097 243.293 616.469 243.088V239.448C611.274 241.043 615.078 240.347 612.542 237.402C610.211 238.589 598.39 238.139 596.263 237.321C599.126 235.03 609.474 235.93 612.951 236.421L610.742 217.728C609.761 211.838 609.474 212.983 607.961 212.206L608.288 215.601C604.566 216.419 595.567 217.155 591.927 214.496L591.231 214.006C591.231 213.842 591.027 213.801 590.904 213.801C590.332 217.114 589.309 220.018 588.859 223.086Z" fill="#C6CBD5"/>
<path fill-rule="evenodd" clip-rule="evenodd" d="M469.257 170.075L469.625 221.532L469.666 244.152H473.429V161.895L469.052 161.977L469.257 170.075Z" fill="#196689"/>
<path fill-rule="evenodd" clip-rule="evenodd" d="M305.683 140.257C306.379 151.833 306.338 160.054 305.683 171.712C310.183 170.812 312.555 171.303 316.768 171.098C316.4 166.026 316.686 161.486 316.604 156.25L309.16 156.209C307.238 155.841 308.383 156.332 307.033 155.514L316.482 155.637C316.891 150.605 316.482 146.065 316.645 140.87L305.683 140.257Z" fill="#9BA4B4"/>
<path fill-rule="evenodd" clip-rule="evenodd" d="M263.021 257.854C261.671 263.458 262.162 272.007 262.244 278.184H278.032C277.746 275.688 277.991 275.443 278.769 273.602C277.419 272.13 277.869 275.852 277.869 269.839L278.564 257.609C278.237 257.282 276.642 256.791 276.355 256.586C276.805 259.859 277.501 257.854 274.269 258.427C274.269 258.427 270.383 258.223 269.893 258.223C267.111 258.141 265.311 258.673 263.021 257.854Z" fill="#9BA4B4"/>
<path fill-rule="evenodd" clip-rule="evenodd" d="M99.6108 211.224V242.761C99.8563 242.925 100.879 243.415 101.165 243.579L104.806 245.297C105.01 245.379 105.378 245.91 105.542 245.706C105.665 245.501 106.074 245.951 106.278 246.156C99.6927 245.174 92.0028 245.747 85.131 245.665C80.9588 245.624 71.0601 244.97 67.5424 246.238L66.3153 247.015C74.9869 245.215 93.8025 246.851 103.865 246.483C104.11 246.688 105.174 247.915 105.215 247.915C106.155 248.774 105.296 248.324 106.524 248.937L111.514 248.569C111.555 248.365 111.514 248.078 111.473 248.16L110.9 246.647C108.937 240.961 112.373 239.734 109.141 235.521C107.014 236.584 103.333 237.73 101.411 238.057C100.961 226.604 101.615 231.799 103.21 227.095C101.042 225.131 100.593 227.708 101.124 222.268L103.129 216.705C102.679 213.065 103.251 204.434 104.847 201.571C104.028 199.853 103.578 197.276 103.088 194.495L104.601 194.208V191.959L96.7885 192L96.7476 207.543C96.9521 207.707 97.2384 207.829 97.443 207.952L99.4063 208.852C99.4063 208.852 100.961 209.138 101.165 209.22C102.106 212.819 101.983 210.038 99.6108 211.224Z" fill="#84ACC4"/>
<path fill-rule="evenodd" clip-rule="evenodd" d="M570.493 278.183H592.54L592.336 274.952L613.033 274.788C606.856 273.07 599.494 274.461 592.622 273.725L592.54 268.816C590.209 267.385 592.213 268.53 590.413 268.203L589.063 268.039C588.9 267.998 588.573 268.039 588.368 267.998V264.358C585.873 263.663 581.987 264.072 579.001 264.153C571.27 264.399 578.469 262.804 570.739 262.599L570.493 278.183Z" fill="#626D83"/>
<path fill-rule="evenodd" clip-rule="evenodd" d="M222.322 243.293C224.612 246.606 224.244 244.152 224.326 247.138C223.181 249.06 225.267 248.569 213.691 248.365C209.887 248.283 208.046 247.874 205.633 250.083C205.878 250.246 206.206 250.164 206.328 250.451C207.146 252.21 220.972 250.86 223.917 251.801C221.095 251.801 218.231 251.841 215.409 251.801L208.537 252.128C206.206 252.946 207.637 252.169 206.042 253.519C209.887 256.341 219.009 254.95 223.999 255.196C217.659 255.236 208.619 254.091 205.797 256.914C209.519 260.104 216.718 257.977 224.162 258.631C217.536 259.122 209.846 257.773 206.042 260.309C210.91 264.358 218.354 260.39 223.017 262.067C224.899 262.763 223.712 262.108 224.858 263.172L228.948 263.008C228.866 261.208 228.703 261.454 228.58 260.309L228.048 241.207C227.148 241.411 225.635 241.697 224.735 241.779C219.418 242.106 225.226 242.434 222.772 241.575L222.322 243.293Z" fill="#9BA4B4"/>
<path fill-rule="evenodd" clip-rule="evenodd" d="M482.142 278.183H495.435C495.476 274.257 496.417 257.731 494.372 254.582C492.204 251.31 494.535 254.705 492.654 252.7L493.267 256.341L483.45 256.136L484.637 252.128L481.651 252.946C481.119 259.245 482.305 270.78 482.142 278.183Z" fill="#8B94A4"/>
<path fill-rule="evenodd" clip-rule="evenodd" d="M175.487 278.183H198.639L198.925 265.953C194.753 265.381 190.621 265.626 186.408 265.585C181.827 265.544 179.782 264.971 175.569 264.808L175.487 278.183Z" fill="#196689"/>
<path fill-rule="evenodd" clip-rule="evenodd" d="M20.0124 278.183H36.2102L36.0057 257.895C35.8421 257.65 35.5558 257.159 35.474 256.995C35.3922 256.873 35.2695 256.627 35.1876 256.505C33.6742 253.887 34.6968 254.623 30.9337 254.337L34.7786 256.055C32.7334 260.145 35.474 255.482 34.1242 258.182C31.3836 263.704 22.3439 263.049 19.9715 261.454C20.3396 263.335 20.1351 261.658 20.0942 263.54L19.7261 274.543C19.7261 276.22 19.2761 275.77 20.0124 278.183Z" fill="#73797C"/>
<path fill-rule="evenodd" clip-rule="evenodd" d="M157.776 277.12C157.858 273.643 157.571 270.125 158.348 266.853C158.226 267.058 155.076 268.367 159.985 268.121C164.77 267.876 161.784 268.735 162.725 266.281C160.435 264.931 162.602 265.749 159.248 265.34C158.635 265.258 156.549 265.176 155.812 265.135C151.313 265.013 136.26 264.644 133.888 265.831L134.215 270.575L135.033 277.611C141.537 278.183 140.187 278.552 140.883 273.643C142.478 275.893 141.701 274.707 144.073 274.87C152.417 275.32 143.869 275.402 152.376 273.684C152.54 274.175 152.867 275.607 152.908 275.729C153.645 277.406 153.154 276.629 154.135 277.938L157.776 277.12Z" fill="#A55431"/>
<path fill-rule="evenodd" clip-rule="evenodd" d="M580.351 104.098L595.076 104.221C599.985 102.708 596.058 104.385 597.571 101.93L598.839 95.713C593.277 94.1996 585.219 95.3449 579.124 94.9358L578.183 89.4956C586.527 90.191 594.994 90.6819 602.603 87.7368C597.98 88.2276 595.853 87.1232 590.904 87.205C586.691 87.246 582.56 86.8369 578.429 86.8369L572.784 87.4096C575.565 90.191 576.097 91.5408 576.874 95.4267C577.201 97.0628 577.447 98.6581 577.856 100.09C579.287 105.08 577.406 102.421 580.351 104.098Z" fill="#8B94A4"/>
<path fill-rule="evenodd" clip-rule="evenodd" d="M205.592 236.953C205.388 239.284 204.897 239.652 205.633 241.575C206.492 243.906 206.042 243.006 208.455 244.152C209.642 240.634 208.905 242.229 210.173 240.757C210.337 245.256 209.233 243.088 213.487 243.579L219.663 244.152C218.845 239.898 218.968 232.412 218.968 227.954L218.927 216.092C218.6 214.169 219.009 214.824 217.945 213.719C215.532 215.846 216.841 213.269 216.554 217.687L216.35 231.635C216.35 231.512 216.309 232.044 216.104 232.208L215.941 213.515C213.2 215.274 214.959 213.228 213.977 216.092L213.773 238.671C213.773 238.548 213.732 239.12 213.691 239.366C212.873 237.116 213.446 222.473 213.446 219.405C213.446 213.188 212.75 214.333 211.278 213.31L210.869 230.572C210.828 231.39 210.951 233.844 210.951 234.13C210.991 234.744 211.114 238.507 210.991 240.47C208.455 237.239 212.832 236.707 205.592 236.953Z" fill="#8B94A4"/>
<path fill-rule="evenodd" clip-rule="evenodd" d="M108.16 221C106.973 225.949 108.691 225.704 104.397 226.645C104.028 224.231 104.724 222.064 105.501 220.059L108.16 220.182L106.605 217.728C108.242 216.173 108.691 216.255 108.937 214.251C109.714 207.829 108.487 211.02 106.851 210.079C108.405 207.788 111.596 208.238 106.401 201.571L105.092 208.606C104.56 212.165 106.442 209.424 104.928 213.842C103.66 217.523 103.538 215.846 103.292 219.446L103.129 216.705L101.124 222.268C100.593 227.708 101.042 225.131 103.21 227.095C101.615 231.799 100.961 226.604 101.411 238.057C103.333 237.73 107.014 236.584 109.141 235.521C111.023 233.312 110.082 233.598 110.287 230.572L109.878 213.474C112.127 214.292 114.663 211.429 112.864 217.114L112.782 213.474L117.118 211.797C115.727 208.279 116.749 204.925 115.645 201.653L112.782 201.244C111.227 208.075 109.1 204.025 112.373 208.688L114.254 204.311C114.295 204.189 114.5 204.066 114.541 203.78C114.582 203.493 114.786 203.412 114.95 203.248V210.938C112.536 210.938 114.091 209.793 110.696 211.142C106.933 221.123 111.023 222.841 108.16 221Z" fill="#D25560"/>
<path fill-rule="evenodd" clip-rule="evenodd" d="M516.173 262.026L515.969 267.957H543.252C544.111 265.34 543.947 262.681 542.393 259.49L536.421 259.327L537.28 266.28C535.603 261.331 535.848 264.031 536.83 259.163C534.048 259.49 534.13 259.613 531.267 259.613C529.958 259.572 528.608 259.368 527.054 259.409C522.595 259.409 522.882 260.39 518.546 258.754C516.337 261.454 518.014 255.727 516.173 262.026Z" fill="#9BA4B4"/>
<path fill-rule="evenodd" clip-rule="evenodd" d="M311.614 175.393C307.81 175.188 309.937 175.066 309.283 176.007L312.719 177.725L312.432 211.02L318.2 210.856L318.772 175.311L317.3 175.434C315.418 175.393 314.437 174.657 311.614 175.393Z" fill="#196689"/>
<path fill-rule="evenodd" clip-rule="evenodd" d="M592.54 278.183H616.469V274.216L616.019 268.816C607.634 268.407 597.408 269.634 590.086 267.835C590.004 267.426 590.127 266.608 590.25 266.321L590.945 265.217C591.927 264.235 591.763 264.644 593.072 264.522C588.736 265.176 591.845 265.258 588.368 264.358V267.998C588.573 268.039 588.9 267.998 589.064 268.039L590.413 268.203C592.213 268.53 590.209 267.385 592.54 268.816L592.622 273.725C599.494 274.461 606.857 273.07 613.033 274.788L592.336 274.952L592.54 278.183Z" fill="#757C94"/>
<path fill-rule="evenodd" clip-rule="evenodd" d="M29.7474 185.414L30.1565 196.908C39.7279 197.031 39.3189 195.026 44.2682 197.603C44.3909 197.399 44.5545 196.826 44.6364 196.99C44.6773 197.112 44.9227 196.499 45.0045 196.376C48.6449 190.936 47.7041 194.331 49.1358 183.696C48.9312 183.778 48.6858 184.023 48.5631 184.105L47.3769 184.8C44.6773 186.15 32.8152 185.537 29.7474 185.414Z" fill="#95C2DC"/>
<path fill-rule="evenodd" clip-rule="evenodd" d="M297.544 171.466C301.102 171.098 300.816 171.712 303.802 170.444L304.047 141.484L297.421 140.42L297.544 171.466Z" fill="#757C94"/>
<path fill-rule="evenodd" clip-rule="evenodd" d="M250.504 264.971L250.218 278.183H262.244C262.162 272.007 261.671 263.458 263.021 257.854L259.299 257.772L258.849 263.54C257.008 263.458 255.331 263.172 253.572 263.376C250.586 263.744 250.463 261.945 250.504 264.971Z" fill="#757C94"/>
<path fill-rule="evenodd" clip-rule="evenodd" d="M307.32 243.293C307.401 246.197 307.647 245.092 308.219 245.992L313.21 246.033L312.841 213.76L307.115 213.638L307.32 243.293Z" fill="#196689"/>
<path fill-rule="evenodd" clip-rule="evenodd" d="M406.183 278.183H422.995C422.627 273.602 423.281 271.516 422.34 266.812L406.551 266.935L406.183 278.183Z" fill="#12304F"/>
<path fill-rule="evenodd" clip-rule="evenodd" d="M70.651 174.779C69.6694 176.17 70.242 174.82 69.7103 176.947C69.5876 177.438 68.2786 203.821 70.651 207.993L74.046 207.87C75.0686 206.48 74.4551 207.83 74.9459 205.743C75.0277 205.457 75.1913 204.475 75.1913 204.148L75.1095 191.345C75.1095 188.441 75.1095 185.701 75.1504 182.837C75.2732 175.352 74.5369 176.825 74.3733 175.557C74.3324 175.148 74.2097 175.066 74.046 174.779H70.651Z" fill="#196689"/>
<path fill-rule="evenodd" clip-rule="evenodd" d="M364.094 216.705L363.357 226.931V227.667C362.703 229.263 361.517 230.735 362.335 233.844C363.071 236.666 361.967 234.498 363.562 236.216L365.035 230.858C374.074 234.048 382.459 227.586 378.901 239.529L382.705 238.63C382.091 237.934 384.464 237.852 380.701 237.893C380.782 237.73 381.028 237.362 381.069 237.484L382.132 235.971C382.5 234.13 380.537 236.053 381.437 233.762L383.032 232.085C377.592 231.39 382.746 232.371 380.087 230.04C378.86 228.935 378.205 228.731 377.715 228.649L383.114 228.158C382.991 227.954 382.623 227.463 382.582 227.626C382.5 227.79 382.132 227.258 382.05 227.177C380.578 225.295 381.641 228.035 381.273 226.072C380.823 223.332 380.292 226.972 381.723 225.295C384.177 222.309 381.641 227.177 382.623 224.559C367.366 222.391 371.906 227.095 365.075 229.958C364.298 226.031 365.648 229.549 365.566 227.667C365.525 226.277 365.812 227.381 364.544 225.05L368.307 224.559C365.648 223.659 365.853 226.727 366.957 216.623L382.623 216.051L382.909 216.296C379.187 215.519 375.669 215.764 371.988 215.764C365.116 215.846 368.307 214.455 365.771 214.374C361.599 214.292 366.671 211.633 364.421 215.192C362.948 215.192 364.339 214.946 364.094 216.705Z" fill="#C6CBD5"/>
<path fill-rule="evenodd" clip-rule="evenodd" d="M408.433 255.196L408.76 265.422L401.234 264.685V278.183H406.183L406.552 266.935L422.34 266.812C423.281 271.516 422.627 273.602 422.995 278.183H423.977C423.608 267.221 426.349 264.399 417.882 263.99C415.591 263.867 415.591 264.481 412.114 264.481C411.583 260.799 411.828 257.936 411.869 254.296C411.992 248.856 413.055 248.201 408.229 248.487L408.433 255.196Z" fill="#2F3950"/>
<path fill-rule="evenodd" clip-rule="evenodd" d="M590.413 227.095L610.129 226.808C609.556 224.232 606.857 224.518 608.902 216.787C603.257 216.378 597.694 216.46 591.968 216.664C593.604 226.318 590.822 223.577 590.413 227.095Z" fill="#9BA4B4"/>
<path fill-rule="evenodd" clip-rule="evenodd" d="M616.469 264.235V243.088C614.097 243.293 614.342 243.129 612.215 243.211C610.333 243.334 609.597 243.497 607.511 243.538L608.779 265.422C609.515 263.254 610.088 262.027 609.802 259.613C610.661 265.299 608.82 261.331 615.283 263.172L611.315 264.563C613.851 265.34 613.769 265.176 616.469 264.235Z" fill="#9BA4B4"/>
<path fill-rule="evenodd" clip-rule="evenodd" d="M64.5973 243.211L69.6694 243.375L69.7512 211.142L64.4337 211.265L64.5973 243.211Z" fill="#196689"/>
<path fill-rule="evenodd" clip-rule="evenodd" d="M537.321 156.209C535.398 156.087 533.517 156.127 531.43 156.7C531.308 158.704 531.676 158.704 531.676 160.095C531.676 160.913 531.594 162.058 531.553 163.204C531.43 166.19 531.471 168.644 531.308 171.753C535.725 170.853 537.893 171.221 542.229 171.18C542.106 166.026 542.393 161.281 542.147 156.291L537.321 156.209Z" fill="#9BA4B4"/>
<path fill-rule="evenodd" clip-rule="evenodd" d="M542.065 141.075C538.67 140.461 535.112 140.707 531.349 140.952C531.471 143.038 531.635 143.325 531.676 144.388L531.144 155.555C534.58 155.964 538.711 155.882 541.943 155.596C542.597 150.892 541.984 146.27 542.065 141.075Z" fill="#9BA4B4"/>
<path fill-rule="evenodd" clip-rule="evenodd" d="M185.427 195.026L185.304 206.111L195.203 206.234C195.98 202.266 196.593 203.043 196.675 198.217C196.757 194.126 196.471 191.631 197.289 187.582C191.767 188.768 196.062 187.091 194.139 192.531H187.308C187.145 192.736 186.899 193.022 186.776 193.186L185.427 195.026Z" fill="#95C2DC"/>
<path fill-rule="evenodd" clip-rule="evenodd" d="M382.623 224.559V216.051L366.957 216.623C365.852 226.727 365.648 223.659 368.307 224.559L364.544 225.05C365.812 227.381 365.525 226.277 365.566 227.667C365.648 229.549 364.298 226.031 365.075 229.958C371.906 227.095 367.366 222.391 382.623 224.559Z" fill="#9BA4B4"/>
<path fill-rule="evenodd" clip-rule="evenodd" d="M590.904 235.276L606.325 235.357C611.724 235.276 608.697 236.053 610.252 233.926C608.984 232.903 611.561 233.108 606.325 233.026C601.294 232.944 594.79 232.78 590.372 233.762C592.581 232.044 588.695 232.821 594.299 232.371C595.322 232.29 597.981 232.535 599.453 232.535C602.725 232.535 606.243 232.576 609.638 232.494L611.274 227.381L589.636 227.667C590.495 230.122 590.659 234.498 590.904 235.276Z" fill="#9BA4B4"/>
<path fill-rule="evenodd" clip-rule="evenodd" d="M263.021 257.854C265.311 258.672 267.111 258.141 269.893 258.222C270.384 258.222 274.269 258.427 274.269 258.427C277.501 257.854 276.805 259.859 276.355 256.586C276.355 251.841 274.597 249.387 271.774 247.874C266.048 247.833 260.935 249.51 253.695 248.978L263.348 248.855C261.671 252.455 257.99 253.764 263.021 257.854Z" fill="#C6CBD5"/>
<path fill-rule="evenodd" clip-rule="evenodd" d="M295.048 190.895C294.353 193.309 293.78 204.312 294.557 207.543L289.24 209.465L295.989 209.179L300.325 208.566L300.243 186.232L295.007 186.273L295.048 190.895Z" fill="#757C94"/>
<path fill-rule="evenodd" clip-rule="evenodd" d="M337.915 249.346L337.711 278.183H342.292L342.251 251.555C342.415 249.101 342.742 251.228 342.292 248.406C341.392 248.406 341.024 248.324 340.124 248.528L339.02 248.856C338.897 248.896 338.57 249.06 338.488 249.101C338.365 249.142 338.12 249.265 337.915 249.346Z" fill="#495568"/>
<path fill-rule="evenodd" clip-rule="evenodd" d="M30.9337 254.337C34.6969 254.623 33.6743 253.887 35.1877 256.505C35.2695 256.627 35.3922 256.873 35.474 256.995C35.5558 257.159 35.8422 257.65 36.0058 257.895L51.0583 258.263L50.9765 256.791C50.6084 252.414 50.2811 250.86 47.0498 248.528C42.9594 247.629 41.9368 248.774 37.4374 249.101C36.2103 250.451 38.9917 253.887 30.6883 254.173C25.9026 254.296 21.9349 253.887 16.9856 254.337C18.1718 252.905 28.7249 253.764 30.9337 254.337Z" fill="#C6CBD5"/>
<path fill-rule="evenodd" clip-rule="evenodd" d="M224.04 278.183H234.347L234.675 266.608L227.107 266.28C225.676 265.953 226.126 266.035 224.244 265.462L224.04 278.183Z" fill="#8B94A4"/>
<path fill-rule="evenodd" clip-rule="evenodd" d="M111.227 183.533L114.663 183.165L114.009 168.808L108.405 168.848C106.687 168.562 108.16 168.358 106.401 169.38L105.46 182.756C108.937 183.86 105.419 183.696 108.323 181.529C109.591 184.842 107.996 182.592 111.227 183.533Z" fill="#DFE1DE"/>
<path fill-rule="evenodd" clip-rule="evenodd" d="M598.84 95.713C600.598 91.3363 598.88 90.4364 603.462 88.923C604.525 85.5689 603.953 88.1867 602.603 87.7368C594.995 90.6819 586.528 90.191 578.183 89.4957L579.124 94.9358C585.219 95.3449 593.277 94.1996 598.84 95.713Z" fill="#B6BBC6"/>
<path fill-rule="evenodd" clip-rule="evenodd" d="M104.601 191.959V194.208L115.195 194.167C116.095 190.2 115.482 187.95 115.277 183.901L114.663 183.164L111.228 183.532C110 185.128 111.105 183.819 109.837 184.719C107.914 182.837 110.491 182.878 105.583 183.532C104.478 185.864 104.56 188.932 104.601 191.959Z" fill="#D25560"/>
<path fill-rule="evenodd" clip-rule="evenodd" d="M498.953 235.807L510.774 236.257C510.161 234.212 508.77 228.69 507.706 227.054C504.843 222.718 503.166 225.54 498.83 224.354L498.953 235.807Z" fill="#C6CBD5"/>
<path fill-rule="evenodd" clip-rule="evenodd" d="M297.421 140.421L304.047 141.484L304.824 138.498C308.792 138.253 312.555 140.339 314.641 137.721L308.833 137.557L309.651 133.713C306.951 131.463 308.915 133.017 308.915 129.622C308.915 127.986 309.16 129.09 308.669 127.618C308.056 125.777 308.26 126.636 307.36 125.859C305.52 128.109 306.256 128.518 305.274 129.786L302.493 131.995C299.098 135.349 302.984 134.735 296.562 137.762L297.421 140.421Z" fill="#B6BBC6"/>
<path fill-rule="evenodd" clip-rule="evenodd" d="M312.555 266.485C315.623 266.035 315.132 265.503 316.809 265.094L327.894 264.808C333.498 265.217 330.266 263.867 332.925 267.14L336.034 265.462L334.848 259.981C331.78 259.45 319.918 261.413 314.396 261.331L312.555 266.485Z" fill="#757C94"/>
<path fill-rule="evenodd" clip-rule="evenodd" d="M308.506 266.199L308.137 249.428L302.084 249.305L302.288 266.199H308.506Z" fill="#196689"/>
<path fill-rule="evenodd" clip-rule="evenodd" d="M582.396 58.5317L578.51 61.0677C579.492 63.9309 576.997 63.8082 585.75 63.8491C589.391 63.8491 593.154 64.2991 596.344 62.9084C596.263 58.2453 595.976 60.5768 594.79 59.5134L593.481 58.5317L593.972 58.6135L584.973 58.4908C583.992 56.8546 584.36 56.8137 583.91 56.0774C582.437 53.5005 585.423 56.5683 582.56 54.3595L582.396 58.5317Z" fill="#8B94A4"/>
<path fill-rule="evenodd" clip-rule="evenodd" d="M238.806 266.035L238.397 269.348L245.8 270.535L246.373 278.184H250.218L250.504 264.972C250.013 261.29 249.645 262.108 245.923 262.068C245.964 263.377 246.169 264.931 245.964 266.322C245.555 268.858 246.209 267.999 244.369 269.308C240.851 270.085 241.874 265.299 240.933 263.417C238.765 264.685 239.174 265.585 239.051 265.34C238.97 265.176 238.888 265.79 238.806 266.035Z" fill="#59656C"/>
<path fill-rule="evenodd" clip-rule="evenodd" d="M103.129 216.705L103.292 219.446C103.538 215.846 103.66 217.523 104.928 213.842C106.442 209.424 104.56 212.165 105.092 208.606L106.401 201.571C111.596 208.238 108.405 207.788 106.851 210.079C108.487 211.02 109.714 207.829 108.937 214.251C108.691 216.255 108.242 216.173 106.605 217.728L108.16 220.182V221C111.023 222.841 106.933 221.123 110.696 211.142C114.091 209.793 112.536 210.938 114.95 210.938V203.248C114.786 203.412 114.582 203.493 114.541 203.78C114.5 204.066 114.295 204.189 114.254 204.311L112.373 208.688C109.101 204.025 111.227 208.075 112.782 201.244L104.847 201.571C103.251 204.434 102.679 213.065 103.129 216.705Z" fill="#DE354A"/>
<path fill-rule="evenodd" clip-rule="evenodd" d="M104.847 201.571L112.782 201.244L115.645 201.653L116.34 195.926L115.195 194.167L104.601 194.208L103.088 194.495C103.578 197.276 104.028 199.853 104.847 201.571Z" fill="#DFE1DE"/>
<path fill-rule="evenodd" clip-rule="evenodd" d="M449.01 243.579L451.996 244.929L452.977 221.818L448.478 221.736L449.01 243.579Z" fill="#12304F"/>
<path fill-rule="evenodd" clip-rule="evenodd" d="M60.4251 265.422L64.3928 265.667C64.3928 261.454 64.0247 250.901 64.5564 247.015L60.0161 247.547L60.4251 265.422Z" fill="#196689"/>
<path fill-rule="evenodd" clip-rule="evenodd" d="M165.425 250.042L179.005 250.369L178.269 246.688C180.191 246.115 179.618 245.665 180.273 244.97C176.142 245.42 176.591 246.033 173.769 242.925L168.902 243.661C168.738 243.743 168.615 243.947 168.493 244.111L165.425 250.042Z" fill="#8B94A4"/>
<path fill-rule="evenodd" clip-rule="evenodd" d="M522.963 239.898C523.822 243.088 525.336 241.984 529.426 241.861H544.929C552.046 241.861 549.878 242.393 550.532 239.898C548.651 238.957 545.788 239.325 543.538 239.366C539.243 239.489 525.99 238.384 522.963 239.898Z" fill="#8B94A4"/>
<path fill-rule="evenodd" clip-rule="evenodd" d="M141.537 231.921L153.767 231.881C153.767 230.572 153.481 231.022 153.195 230.49C150.29 224.927 148.204 221.45 144.278 225.827C142.232 228.158 145.587 227.013 140.801 228.813C141.701 230.531 141.373 229.099 141.537 231.921Z" fill="#C6CBD5"/>
<path fill-rule="evenodd" clip-rule="evenodd" d="M108.405 168.848L114.009 168.808L113.191 159.277L106.933 159.359L105.869 168.808L108.405 168.848Z" fill="#D25560"/>
<path fill-rule="evenodd" clip-rule="evenodd" d="M238.56 278.183H246.373L245.8 270.534L238.397 269.348C238.192 273.029 238.07 274.707 238.56 278.183Z" fill="#8B94A4"/>
<path fill-rule="evenodd" clip-rule="evenodd" d="M294.966 184.964C297.748 185.578 298.28 186.028 300.325 184.514C299.63 180.26 299.957 182.96 295.907 181.488L300.448 181.16C300.161 177.684 300.325 176.702 300.529 173.389H294.721L294.966 184.964Z" fill="#757C94"/>
<path fill-rule="evenodd" clip-rule="evenodd" d="M526.358 181.61L525.745 174.043L523.086 173.225L519.855 173.184L519.732 181.119L526.358 181.61Z" fill="#757C94"/>
<path fill-rule="evenodd" clip-rule="evenodd" d="M484.637 252.128L483.45 256.136L493.267 256.341L492.654 252.7C488.85 251.473 492.367 252.619 489.586 249.551L487.173 249.019L484.637 252.128Z" fill="#DFE1DE"/>
<path fill-rule="evenodd" clip-rule="evenodd" d="M106.81 148.847L112.7 149.092L112.496 143.12C111.146 141.648 112.291 142.179 111.637 140.298C110.778 138.048 111.8 139.234 109.837 138.007C107.423 139.97 107.219 145.411 106.81 148.847Z" fill="#E22630"/>
<path fill-rule="evenodd" clip-rule="evenodd" d="M521.736 209.015L525.908 208.852L526.113 201.735L520.182 201.407C519.936 207.093 520.509 202.634 520.55 205.007C520.55 205.17 520.55 205.416 520.55 205.58L520.223 208.238C514.251 208.238 519.077 207.502 515.437 208.893C515.273 208.975 514.987 209.138 514.783 209.302L521.736 209.015Z" fill="#757C94"/>
<path fill-rule="evenodd" clip-rule="evenodd" d="M358.981 225.786L360.167 227.381L363.357 226.931L364.094 216.705L361.026 216.337L359.635 220.468C359.185 225.091 359.063 220.918 360.085 225.336L358.981 225.786Z" fill="#757C94"/>
<path fill-rule="evenodd" clip-rule="evenodd" d="M109.837 125.245C111.146 124.591 113.477 126.718 111.227 117.678C110.123 113.179 111.637 112.361 109.837 109.702L107.996 121.564C108.037 125.859 107.996 124.1 109.837 125.245Z" fill="#D25560"/>
<path fill-rule="evenodd" clip-rule="evenodd" d="M200.315 239.039L201.338 244.97C204.079 244.929 203.301 244.806 205.551 244.233C207.637 243.743 206.901 243.579 208.455 244.152C206.042 243.006 206.492 243.906 205.633 241.575C204.897 239.652 205.387 239.284 205.592 236.953L201.788 236.83C201.624 237.075 201.011 238.139 200.97 238.18L200.315 239.039Z" fill="#84ACC4"/>
<path fill-rule="evenodd" clip-rule="evenodd" d="M520.632 234.171L521.082 233.598L521.164 227.667L515.233 227.545C516.296 232.126 516.255 229.713 515.274 234.294L520.632 234.171Z" fill="#73797C"/>
<path fill-rule="evenodd" clip-rule="evenodd" d="M523.659 160.668C524.518 163.899 523.7 164.922 524.518 167.171L529.59 167.335C528.404 162.345 528.404 165.003 529.549 159.85C526.154 160.545 526.645 160.177 523.659 160.668Z" fill="#757C94"/>
<path fill-rule="evenodd" clip-rule="evenodd" d="M295.498 234.212L295.457 227.627L290.181 227.708L290.344 234.335L295.498 234.212Z" fill="#757C94"/>
<path fill-rule="evenodd" clip-rule="evenodd" d="M445.287 213.228C446.105 213.106 447.537 215.028 446.269 209.343L439.97 209.67C439.643 210.815 438.62 211.511 440.215 213.719C443.447 213.76 442.015 213.842 445.287 213.228Z" fill="#C6CBD5"/>
<path fill-rule="evenodd" clip-rule="evenodd" d="M584.196 227.095L588.082 226.727L588.859 223.086L588.614 220.959C588.532 220.223 588.573 219.855 588.368 219.241H585.791L584.196 227.095Z" fill="#757C94"/>
<path fill-rule="evenodd" clip-rule="evenodd" d="M131.925 241.452V243.62L138.633 243.293L138.387 238.711C138.019 238.793 136.301 239.284 136.22 239.284C134.665 239.529 134.215 239.407 132.497 239.529L131.925 241.452Z" fill="#C6CBD5"/>
<path fill-rule="evenodd" clip-rule="evenodd" d="M364.421 243.047C364.339 242.925 363.439 240.634 363.439 240.593C363.398 238.384 363.357 239.57 364.421 238.057L362.089 238.425V240.061C358.49 239.693 358.408 238.875 357.017 242.434C360.658 244.683 359.676 242.761 364.421 243.047Z" fill="#C6CBD5"/>
<path fill-rule="evenodd" clip-rule="evenodd" d="M309.651 133.712L308.833 137.557L314.641 137.721L312.882 132.321C308.955 132.649 311.123 131.381 309.651 133.712Z" fill="#495568"/>
<path fill-rule="evenodd" clip-rule="evenodd" d="M534.334 136.575L534.744 137.271L539.038 137.475L538.957 133.917C536.993 131.381 539.447 132.649 535.275 132.281L534.334 136.575Z" fill="#495568"/>
<path fill-rule="evenodd" clip-rule="evenodd" d="M108.16 221V220.182L105.501 220.059C104.724 222.064 104.028 224.231 104.397 226.645C108.691 225.704 106.973 225.949 108.16 221Z" fill="#8B94A4"/>
</g>
</g>
<defs>
<clipPath id="clip0_1_259">
<rect width="615.64" height="278" fill="white" transform="translate(0.828613 0.193604)"/>
</clipPath>
</defs>
</svg>
