<svg width="157" height="59" viewBox="0 0 157 59" fill="none" xmlns="http://www.w3.org/2000/svg">
<g filter="url(#filter0_d_1_749)">
<path d="M5.35207 24.2394L17.0754 8.56764C20.2825 4.2803 25.3221 1.7544 30.6762 1.75066L137.568 1.67614C146.536 1.66989 153.967 8.6314 154.544 17.581L155.555 33.244C156.188 43.0386 148.418 51.3323 138.603 51.3391L18.9766 51.4224C4.97218 51.4321 -3.03661 35.4534 5.35207 24.2394Z" fill="#F4F4F4"/>
<path d="M5.35207 24.2394L17.0754 8.56764C20.2825 4.2803 25.3221 1.7544 30.6762 1.75066L137.568 1.67614C146.536 1.66989 153.967 8.6314 154.544 17.581L155.555 33.244C156.188 43.0386 148.418 51.3323 138.603 51.3391L18.9766 51.4224C4.97218 51.4321 -3.03661 35.4534 5.35207 24.2394Z" stroke="black" stroke-width="2" stroke-linejoin="round"/>
</g>
<defs>
<filter id="filter0_d_1_749" x="0.932129" y="0.676147" width="155.659" height="57.7462" filterUnits="userSpaceOnUse" color-interpolation-filters="sRGB">
<feFlood flood-opacity="0" result="BackgroundImageFix"/>
<feColorMatrix in="SourceAlpha" type="matrix" values="0 0 0 0 0 0 0 0 0 0 0 0 0 0 0 0 0 0 127 0" result="hardAlpha"/>
<feOffset dy="6"/>
<feComposite in2="hardAlpha" operator="out"/>
<feColorMatrix type="matrix" values="0 0 0 0 0 0 0 0 0 0 0 0 0 0 0 0 0 0 0.1 0"/>
<feBlend mode="normal" in2="BackgroundImageFix" result="effect1_dropShadow_1_749"/>
<feBlend mode="normal" in="SourceGraphic" in2="effect1_dropShadow_1_749" result="shape"/>
</filter>
</defs>
</svg>
