<svg width="322" height="80" viewBox="0 0 322 80" fill="none" xmlns="http://www.w3.org/2000/svg">
<g filter="url(#filter0_d_2_5403)">
<path d="M3.989 46.0583L28.9425 9.24524C32.1058 4.57864 37.3767 1.78376 43.0144 1.78376L286.666 1.78368C293.275 1.78369 299.284 5.61314 302.075 11.6029L319.231 48.4161C324.483 59.686 316.255 72.5969 303.822 72.5969L18.0608 72.5968C4.42367 72.5968 -3.66267 57.3465 3.989 46.0583Z" fill="#F4F4F4"/>
<path d="M3.989 46.0583L28.9425 9.24524C32.1058 4.57864 37.3767 1.78376 43.0144 1.78376L286.666 1.78368C293.275 1.78369 299.284 5.61314 302.075 11.6029L319.231 48.4161C324.483 59.686 316.255 72.5969 303.822 72.5969L18.0608 72.5968C4.42367 72.5968 -3.66267 57.3465 3.989 46.0583Z" stroke="black" stroke-width="2" stroke-linejoin="round"/>
</g>
<defs>
<filter id="filter0_d_2_5403" x="0.0301514" y="0.783691" width="321.813" height="78.8132" filterUnits="userSpaceOnUse" color-interpolation-filters="sRGB">
<feFlood flood-opacity="0" result="BackgroundImageFix"/>
<feColorMatrix in="SourceAlpha" type="matrix" values="0 0 0 0 0 0 0 0 0 0 0 0 0 0 0 0 0 0 127 0" result="hardAlpha"/>
<feOffset dy="6"/>
<feComposite in2="hardAlpha" operator="out"/>
<feColorMatrix type="matrix" values="0 0 0 0 0 0 0 0 0 0 0 0 0 0 0 0 0 0 0.1 0"/>
<feBlend mode="normal" in2="BackgroundImageFix" result="effect1_dropShadow_2_5403"/>
<feBlend mode="normal" in="SourceGraphic" in2="effect1_dropShadow_2_5403" result="shape"/>
</filter>
</defs>
</svg>
