<svg width="157" height="58" viewBox="0 0 157 58" fill="none" xmlns="http://www.w3.org/2000/svg">
<g filter="url(#filter0_d_2_5341)">
<path d="M152.212 28.4367L140.487 44.1075C137.28 48.3946 132.24 50.9201 126.886 50.9234L19.9943 50.9893C11.0261 50.9948 3.59606 44.0327 3.01904 35.083L2.0092 19.42C1.37771 9.6253 9.14849 1.33229 18.9635 1.32624L138.589 1.25261C152.594 1.24399 160.601 17.2234 152.212 28.4367Z" fill="#F4F4F4"/>
<path d="M152.212 28.4367L140.487 44.1075C137.28 48.3946 132.24 50.9201 126.886 50.9234L19.9943 50.9893C11.0261 50.9948 3.59606 44.0327 3.01904 35.083L2.0092 19.42C1.37771 9.6253 9.14849 1.33229 18.9635 1.32624L138.589 1.25261C152.594 1.24399 160.601 17.2234 152.212 28.4367Z" stroke="black" stroke-width="2" stroke-linejoin="round"/>
</g>
<defs>
<filter id="filter0_d_2_5341" x="0.973267" y="0.252563" width="155.659" height="57.7367" filterUnits="userSpaceOnUse" color-interpolation-filters="sRGB">
<feFlood flood-opacity="0" result="BackgroundImageFix"/>
<feColorMatrix in="SourceAlpha" type="matrix" values="0 0 0 0 0 0 0 0 0 0 0 0 0 0 0 0 0 0 127 0" result="hardAlpha"/>
<feOffset dy="6"/>
<feComposite in2="hardAlpha" operator="out"/>
<feColorMatrix type="matrix" values="0 0 0 0 0 0 0 0 0 0 0 0 0 0 0 0 0 0 0.1 0"/>
<feBlend mode="normal" in2="BackgroundImageFix" result="effect1_dropShadow_2_5341"/>
<feBlend mode="normal" in="SourceGraphic" in2="effect1_dropShadow_2_5341" result="shape"/>
</filter>
</defs>
</svg>
