<svg width="681" height="213" viewBox="0 0 681 213" fill="none" xmlns="http://www.w3.org/2000/svg">
<path fill-rule="evenodd" clip-rule="evenodd" d="M680.917 5C680.917 2.23858 678.678 0 675.917 0H5.08301C2.32158 0 0.0830078 2.23857 0.0830078 5V203.882C0.0830078 203.883 0.0830658 203.883 0.0831374 203.883C0.0832529 203.883 0.0833107 203.883 0.0832291 203.883L0.0831374 203.883C0.0830658 203.883 0.0830656 203.883 0.0831372 203.883L7.1855 210.986C9.13812 212.938 12.304 212.938 14.2566 210.986L17.8232 207.419C19.7758 205.466 22.9417 205.466 24.8943 207.419L28.4609 210.986C30.4136 212.938 33.5794 212.938 35.532 210.986L42.6344 203.883C42.6345 203.883 42.6345 203.883 42.6344 203.883C42.6343 203.883 42.6343 203.883 42.6345 203.883H42.6373C42.6375 203.883 42.6376 203.883 42.6375 203.883C42.6374 203.883 42.6374 203.883 42.6375 203.883L49.7398 210.986C51.6925 212.938 54.8583 212.938 56.8109 210.986L60.3766 207.42C62.3292 205.467 65.495 205.467 67.4476 207.42L71.0133 210.986C72.9659 212.938 76.1318 212.938 78.0844 210.986L85.1867 203.883C85.1868 203.883 85.1868 203.883 85.1867 203.883C85.1866 203.883 85.1867 203.883 85.1869 203.883H85.1872C85.1874 203.883 85.1875 203.883 85.1873 203.883C85.1873 203.883 85.1873 203.883 85.1873 203.883L92.2897 210.985C94.2423 212.938 97.4082 212.938 99.3608 210.985L106.463 203.883C106.463 203.883 106.463 203.883 106.463 203.883C106.463 203.883 106.463 203.883 106.463 203.883H106.464C106.464 203.883 106.464 203.883 106.464 203.883C106.464 203.883 106.464 203.883 106.464 203.883L113.566 210.985C115.519 212.938 118.685 212.938 120.637 210.985L127.74 203.883C127.74 203.883 127.74 203.883 127.74 203.883C127.739 203.883 127.74 203.883 127.74 203.883H127.74C127.74 203.883 127.74 203.883 127.74 203.883C127.74 203.883 127.74 203.883 127.74 203.883L134.843 210.985C136.795 212.938 139.961 212.938 141.914 210.985L145.48 207.419C147.432 205.467 150.598 205.467 152.551 207.419L156.117 210.985C158.07 212.938 161.235 212.938 163.188 210.985L170.29 203.883C170.291 203.883 170.291 203.883 170.29 203.883C170.29 203.883 170.29 203.883 170.291 203.883H170.291C170.291 203.883 170.291 203.883 170.291 203.883C170.291 203.883 170.291 203.883 170.291 203.883L177.393 210.985C179.346 212.938 182.512 212.938 184.465 210.985L191.567 203.883C191.567 203.883 191.567 203.883 191.567 203.883C191.567 203.883 191.567 203.883 191.567 203.883H191.568C191.568 203.883 191.568 203.883 191.568 203.883C191.568 203.883 191.568 203.883 191.568 203.883L198.67 210.985C200.623 212.938 203.789 212.938 205.741 210.985L209.308 207.419C211.261 205.466 214.427 205.466 216.379 207.419L219.946 210.985C221.898 212.938 225.064 212.938 227.017 210.985L234.119 203.883C234.119 203.883 234.119 203.883 234.119 203.883C234.119 203.883 234.119 203.883 234.119 203.883H234.12C234.12 203.883 234.12 203.883 234.12 203.883C234.12 203.883 234.12 203.883 234.12 203.883L241.223 210.985C243.175 212.938 246.341 212.938 248.294 210.985L251.86 207.419C253.813 205.467 256.978 205.467 258.931 207.419L262.497 210.985C264.45 212.938 267.616 212.938 269.568 210.985L276.671 203.883C276.671 203.883 276.671 203.883 276.671 203.883C276.671 203.883 276.671 203.883 276.671 203.883H276.672C276.672 203.883 276.672 203.883 276.672 203.883C276.672 203.883 276.672 203.883 276.672 203.883L283.774 210.985C285.727 212.938 288.892 212.938 290.845 210.985L294.411 207.419C296.364 205.467 299.529 205.467 301.482 207.419L305.048 210.985C307.001 212.938 310.166 212.938 312.119 210.985L319.221 203.883C319.222 203.883 319.222 203.883 319.221 203.883C319.221 203.883 319.221 203.883 319.222 203.883H319.224C319.225 203.883 319.225 203.883 319.224 203.883C319.224 203.883 319.224 203.883 319.224 203.883L326.327 210.985C328.28 212.938 331.445 212.938 333.398 210.985L336.964 207.419C338.917 205.467 342.083 205.467 344.035 207.419L347.601 210.985C349.554 212.938 352.72 212.938 354.672 210.985L361.775 203.883C361.775 203.883 361.775 203.883 361.775 203.883C361.775 203.883 361.775 203.883 361.775 203.883H361.776C361.776 203.883 361.776 203.883 361.776 203.883C361.776 203.883 361.776 203.883 361.776 203.883L368.878 210.985C370.831 212.938 373.997 212.938 375.949 210.985L383.052 203.883C383.052 203.883 383.052 203.883 383.052 203.883C383.052 203.883 383.052 203.883 383.052 203.883H383.053C383.053 203.883 383.053 203.883 383.053 203.883C383.053 203.883 383.053 203.883 383.053 203.883L390.155 210.985C392.108 212.938 395.274 212.938 397.226 210.985L400.793 207.419C402.745 205.466 405.911 205.466 407.864 207.419L411.43 210.985C413.383 212.938 416.549 212.938 418.501 210.985L425.604 203.883C425.604 203.883 425.604 203.883 425.604 203.883C425.604 203.883 425.604 203.883 425.604 203.883H425.605C425.606 203.883 425.606 203.883 425.606 203.883C425.605 203.883 425.605 203.883 425.606 203.883L432.708 210.985C434.661 212.938 437.826 212.938 439.779 210.985L443.345 207.419C445.298 205.467 448.464 205.467 450.416 207.419L453.982 210.985C455.935 212.938 459.101 212.938 461.053 210.985L468.156 203.883C468.156 203.883 468.156 203.883 468.156 203.883C468.156 203.883 468.156 203.883 468.156 203.883H468.158C468.158 203.883 468.158 203.883 468.158 203.883C468.158 203.883 468.158 203.883 468.158 203.883L475.26 210.985C477.213 212.938 480.379 212.938 482.331 210.985L485.897 207.42C487.85 205.467 491.016 205.467 492.968 207.42L496.534 210.985C498.486 212.938 501.652 212.938 503.605 210.985L510.707 203.883L517.81 210.985C519.762 212.938 522.928 212.938 524.881 210.985L528.448 207.419C530.4 205.466 533.566 205.466 535.519 207.419L539.086 210.985C541.038 212.938 544.204 212.938 546.157 210.985L553.259 203.883C553.259 203.883 553.259 203.883 553.26 203.883C553.26 203.883 553.26 203.883 553.26 203.883L560.363 210.985C562.315 212.938 565.481 212.938 567.434 210.985L571.001 207.418C572.953 205.466 576.119 205.466 578.072 207.418L581.639 210.985C583.591 212.938 586.757 212.938 588.71 210.985L592.277 207.418C594.229 205.466 597.395 205.466 599.348 207.418L602.915 210.985C604.867 212.938 608.033 212.938 609.986 210.985L613.552 207.419C615.505 205.466 618.671 205.466 620.624 207.419L624.19 210.985C626.143 212.938 629.309 212.938 631.261 210.985L634.828 207.419C636.781 205.466 639.946 205.466 641.899 207.419L645.466 210.985C647.418 212.938 650.584 212.938 652.537 210.985L656.104 207.418C658.056 205.466 661.222 205.466 663.175 207.418L666.742 210.985C668.695 212.938 671.86 212.938 673.813 210.985L680.915 203.883C680.916 203.883 680.916 203.883 680.916 203.883C680.916 203.883 680.917 203.882 680.917 203.882V5ZM510.707 203.883C510.707 203.883 510.707 203.883 510.707 203.883L510.707 203.883L510.707 203.883C510.707 203.883 510.707 203.883 510.707 203.883ZM212.844 203.883C212.844 203.883 212.844 203.883 212.844 203.883C212.844 203.883 212.844 203.883 212.844 203.883C212.844 203.883 212.844 203.883 212.844 203.883ZM21.3588 203.883C21.3588 203.883 21.3588 203.883 21.3588 203.883C21.3587 203.883 21.3587 203.883 21.3587 203.883C21.3587 203.883 21.3588 203.883 21.3588 203.883Z" fill="#FFF6DE"/>
</svg>
